<svg viewBox="0 0 991 747" height="747" xmlns="http://www.w3.org/2000/svg" version="1.1">
<rect  height="25" width="462"  style=" fill:rgb(173, 216, 230); stroke:rgb(0, 0, 0); stroke-width:1"  x="1"  y="1" />
<text x="7" y="18" font-size= "14" font-weight = "bold" style="fill:rgb(0, 0, 0)" font-family="Arial">IPython -- An enhanced Interactive Python - Quick Reference Card</text>
<rect  height="8" width="462"  style=" fill:rgb(255, 255, 255); stroke:rgb(0, 0, 0); stroke-width:1"  x="1"  y="26" />
<rect  height="17" width="462"  style=" fill:rgb(255, 255, 255); stroke:rgb(0, 0, 0); stroke-width:1"  x="1"  y="34" />
<text x="11" y="46" font-size= "12" font-weight = "normal" style="fill:rgb(0, 0, 0)" font-family="Arial">ipython</text>
<text x="191" y="46" font-size= "12" font-weight = "normal" style="fill:rgb(0, 0, 0)" font-family="Arial">Open IPython terminal console</text>
<line x1="180" y1="34" x2="180" y2="51" style="stroke:rgb(0, 0, 0); stroke-width:1"/>
<rect  height="17" width="462"  style=" fill:rgb(255, 255, 255); stroke:rgb(0, 0, 0); stroke-width:1"  x="1"  y="51" />
<text x="11" y="63" font-size= "12" font-weight = "normal" style="fill:rgb(0, 0, 0)" font-family="Arial">ipython qtconsole</text>
<text x="191" y="63" font-size= "12" font-weight = "normal" style="fill:rgb(0, 0, 0)" font-family="Arial">Open IPython qtconsole</text>
<line x1="180" y1="51" x2="180" y2="68" style="stroke:rgb(0, 0, 0); stroke-width:1"/>
<rect  height="17" width="462"  style=" fill:rgb(255, 255, 255); stroke:rgb(0, 0, 0); stroke-width:1"  x="1"  y="68" />
<text x="11" y="80" font-size= "12" font-weight = "normal" style="fill:rgb(0, 0, 0)" font-family="Arial">ipython notebook</text>
<text x="191" y="80" font-size= "12" font-weight = "normal" style="fill:rgb(0, 0, 0)" font-family="Arial">Open IPython Notebook (browser interface)</text>
<line x1="180" y1="68" x2="180" y2="85" style="stroke:rgb(0, 0, 0); stroke-width:1"/>
<rect  height="17" width="462"  style=" fill:rgb(255, 255, 255); stroke:rgb(0, 0, 0); stroke-width:1"  x="1"  y="85" />
<text x="11" y="97" font-size= "12" font-weight = "normal" style="fill:rgb(0, 0, 0)" font-family="Arial">ipython notebook --pylab inline</text>
<text x="191" y="97" font-size= "12" font-weight = "normal" style="fill:rgb(0, 0, 0)" font-family="Arial">Open IPython Notebook with inline graphs</text>
<line x1="180" y1="85" x2="180" y2="102" style="stroke:rgb(0, 0, 0); stroke-width:1"/>
<rect  height="17" width="462"  style=" fill:rgb(255, 255, 255); stroke:rgb(0, 0, 0); stroke-width:1"  x="1"  y="102" />
<text x="11" y="114" font-size= "12" font-weight = "normal" style="fill:rgb(0, 0, 0)" font-family="Arial">ipython notebook --pylab qt</text>
<text x="191" y="114" font-size= "12" font-weight = "normal" style="fill:rgb(0, 0, 0)" font-family="Arial">Open IPython Notebook with popup graphs</text>
<line x1="180" y1="102" x2="180" y2="119" style="stroke:rgb(0, 0, 0); stroke-width:1"/>
<rect  height="17" width="462"  style=" fill:rgb(255, 255, 255); stroke:rgb(0, 0, 0); stroke-width:1"  x="1"  y="119" />
<text x="11" y="131" font-size= "12" font-weight = "normal" style="fill:rgb(0, 0, 0)" font-family="Arial">ipython3</text>
<text x="191" y="131" font-size= "12" font-weight = "normal" style="fill:rgb(0, 0, 0)" font-family="Arial">Use the Python3 version of IPython</text>
<line x1="180" y1="119" x2="180" y2="136" style="stroke:rgb(0, 0, 0); stroke-width:1"/>
<rect  height="17" width="462"  style=" fill:rgb(255, 255, 255); stroke:rgb(0, 0, 0); stroke-width:1"  x="1"  y="136" />
<text x="11" y="148" font-size= "12" font-weight = "normal" style="fill:rgb(0, 0, 0)" font-family="Arial">ipython --help-all</text>
<text x="191" y="148" font-size= "12" font-weight = "normal" style="fill:rgb(0, 0, 0)" font-family="Arial">Show all IPython start flags</text>
<line x1="180" y1="136" x2="180" y2="153" style="stroke:rgb(0, 0, 0); stroke-width:1"/>
<rect  height="8" width="462"  style=" fill:rgb(255, 255, 255); stroke:rgb(0, 0, 0); stroke-width:1"  x="1"  y="153" />
<rect  height="25" width="462"  style=" fill:rgb(213, 224, 197); stroke:rgb(0, 0, 0); stroke-width:1"  x="1"  y="161" />
<text x="7" y="178" font-size= "14" font-weight = "bold" style="fill:rgb(0, 0, 0)" font-family="Arial">Shortcuts:</text>
<rect  height="8" width="462"  style=" fill:rgb(255, 255, 255); stroke:rgb(0, 0, 0); stroke-width:1"  x="1"  y="186" />
<rect  height="17" width="462"  style=" fill:rgb(255, 255, 255); stroke:rgb(0, 0, 0); stroke-width:1"  x="1"  y="194" />
<text x="11" y="206" font-size= "12" font-weight = "normal" style="fill:rgb(0, 0, 0)" font-family="Arial">Shortcut</text>
<text x="191" y="206" font-size= "12" font-weight = "normal" style="fill:rgb(0, 0, 0)" font-family="Arial">Action</text>
<line x1="180" y1="194" x2="180" y2="211" style="stroke:rgb(0, 0, 0); stroke-width:1"/>
<rect  height="17" width="462"  style=" fill:rgb(255, 255, 255); stroke:rgb(0, 0, 0); stroke-width:1"  x="1"  y="211" />
<text x="11" y="223" font-size= "12" font-weight = "normal" style="fill:rgb(0, 0, 0)" font-family="Arial">Shift-Enter</text>
<text x="191" y="223" font-size= "12" font-weight = "normal" style="fill:rgb(0, 0, 0)" font-family="Arial">run cell</text>
<line x1="180" y1="211" x2="180" y2="228" style="stroke:rgb(0, 0, 0); stroke-width:1"/>
<rect  height="17" width="462"  style=" fill:rgb(255, 255, 255); stroke:rgb(0, 0, 0); stroke-width:1"  x="1"  y="228" />
<text x="11" y="240" font-size= "12" font-weight = "normal" style="fill:rgb(0, 0, 0)" font-family="Arial">Ctrl-Enter</text>
<text x="191" y="240" font-size= "12" font-weight = "normal" style="fill:rgb(0, 0, 0)" font-family="Arial">run cell in-place</text>
<line x1="180" y1="228" x2="180" y2="245" style="stroke:rgb(0, 0, 0); stroke-width:1"/>
<rect  height="17" width="462"  style=" fill:rgb(255, 255, 255); stroke:rgb(0, 0, 0); stroke-width:1"  x="1"  y="245" />
<text x="11" y="257" font-size= "12" font-weight = "normal" style="fill:rgb(0, 0, 0)" font-family="Arial">Alt-Enter</text>
<text x="191" y="257" font-size= "12" font-weight = "normal" style="fill:rgb(0, 0, 0)" font-family="Arial">run cell, insert below</text>
<line x1="180" y1="245" x2="180" y2="262" style="stroke:rgb(0, 0, 0); stroke-width:1"/>
<rect  height="17" width="462"  style=" fill:rgb(255, 255, 255); stroke:rgb(0, 0, 0); stroke-width:1"  x="1"  y="262" />
<text x="11" y="274" font-size= "12" font-weight = "normal" style="fill:rgb(0, 0, 0)" font-family="Arial">Ctrl-m x</text>
<text x="191" y="274" font-size= "12" font-weight = "normal" style="fill:rgb(0, 0, 0)" font-family="Arial">cut cell</text>
<line x1="180" y1="262" x2="180" y2="279" style="stroke:rgb(0, 0, 0); stroke-width:1"/>
<rect  height="17" width="462"  style=" fill:rgb(255, 255, 255); stroke:rgb(0, 0, 0); stroke-width:1"  x="1"  y="279" />
<text x="11" y="291" font-size= "12" font-weight = "normal" style="fill:rgb(0, 0, 0)" font-family="Arial">Ctrl-m c</text>
<text x="191" y="291" font-size= "12" font-weight = "normal" style="fill:rgb(0, 0, 0)" font-family="Arial">copy cell</text>
<line x1="180" y1="279" x2="180" y2="296" style="stroke:rgb(0, 0, 0); stroke-width:1"/>
<rect  height="17" width="462"  style=" fill:rgb(255, 255, 255); stroke:rgb(0, 0, 0); stroke-width:1"  x="1"  y="296" />
<text x="11" y="308" font-size= "12" font-weight = "normal" style="fill:rgb(0, 0, 0)" font-family="Arial">Ctrl-m v</text>
<text x="191" y="308" font-size= "12" font-weight = "normal" style="fill:rgb(0, 0, 0)" font-family="Arial">paste cell</text>
<line x1="180" y1="296" x2="180" y2="313" style="stroke:rgb(0, 0, 0); stroke-width:1"/>
<rect  height="17" width="462"  style=" fill:rgb(255, 255, 255); stroke:rgb(0, 0, 0); stroke-width:1"  x="1"  y="313" />
<text x="11" y="325" font-size= "12" font-weight = "normal" style="fill:rgb(0, 0, 0)" font-family="Arial">Ctrl-m d</text>
<text x="191" y="325" font-size= "12" font-weight = "normal" style="fill:rgb(0, 0, 0)" font-family="Arial">delete cell</text>
<line x1="180" y1="313" x2="180" y2="330" style="stroke:rgb(0, 0, 0); stroke-width:1"/>
<rect  height="17" width="462"  style=" fill:rgb(255, 255, 255); stroke:rgb(0, 0, 0); stroke-width:1"  x="1"  y="330" />
<text x="11" y="342" font-size= "12" font-weight = "normal" style="fill:rgb(0, 0, 0)" font-family="Arial">Ctrl-m z</text>
<text x="191" y="342" font-size= "12" font-weight = "normal" style="fill:rgb(0, 0, 0)" font-family="Arial">undo last cell deletion</text>
<line x1="180" y1="330" x2="180" y2="347" style="stroke:rgb(0, 0, 0); stroke-width:1"/>
<rect  height="17" width="462"  style=" fill:rgb(255, 255, 255); stroke:rgb(0, 0, 0); stroke-width:1"  x="1"  y="347" />
<text x="11" y="359" font-size= "12" font-weight = "normal" style="fill:rgb(0, 0, 0)" font-family="Arial">Ctrl-m -</text>
<text x="191" y="359" font-size= "12" font-weight = "normal" style="fill:rgb(0, 0, 0)" font-family="Arial">split cell</text>
<line x1="180" y1="347" x2="180" y2="364" style="stroke:rgb(0, 0, 0); stroke-width:1"/>
<rect  height="17" width="462"  style=" fill:rgb(255, 255, 255); stroke:rgb(0, 0, 0); stroke-width:1"  x="1"  y="364" />
<text x="11" y="376" font-size= "12" font-weight = "normal" style="fill:rgb(0, 0, 0)" font-family="Arial">Ctrl-m a</text>
<text x="191" y="376" font-size= "12" font-weight = "normal" style="fill:rgb(0, 0, 0)" font-family="Arial">insert cell above</text>
<line x1="180" y1="364" x2="180" y2="381" style="stroke:rgb(0, 0, 0); stroke-width:1"/>
<rect  height="17" width="462"  style=" fill:rgb(255, 255, 255); stroke:rgb(0, 0, 0); stroke-width:1"  x="1"  y="381" />
<text x="11" y="393" font-size= "12" font-weight = "normal" style="fill:rgb(0, 0, 0)" font-family="Arial">Ctrl-m b</text>
<text x="191" y="393" font-size= "12" font-weight = "normal" style="fill:rgb(0, 0, 0)" font-family="Arial">insert cell below</text>
<line x1="180" y1="381" x2="180" y2="398" style="stroke:rgb(0, 0, 0); stroke-width:1"/>
<rect  height="17" width="462"  style=" fill:rgb(255, 255, 255); stroke:rgb(0, 0, 0); stroke-width:1"  x="1"  y="398" />
<text x="11" y="410" font-size= "12" font-weight = "normal" style="fill:rgb(0, 0, 0)" font-family="Arial">Ctrl-m o</text>
<text x="191" y="410" font-size= "12" font-weight = "normal" style="fill:rgb(0, 0, 0)" font-family="Arial">toggle output</text>
<line x1="180" y1="398" x2="180" y2="415" style="stroke:rgb(0, 0, 0); stroke-width:1"/>
<rect  height="17" width="462"  style=" fill:rgb(255, 255, 255); stroke:rgb(0, 0, 0); stroke-width:1"  x="1"  y="415" />
<text x="11" y="427" font-size= "12" font-weight = "normal" style="fill:rgb(0, 0, 0)" font-family="Arial">Ctrl-m O</text>
<text x="191" y="427" font-size= "12" font-weight = "normal" style="fill:rgb(0, 0, 0)" font-family="Arial">toggle output scroll</text>
<line x1="180" y1="415" x2="180" y2="432" style="stroke:rgb(0, 0, 0); stroke-width:1"/>
<rect  height="17" width="462"  style=" fill:rgb(255, 255, 255); stroke:rgb(0, 0, 0); stroke-width:1"  x="1"  y="432" />
<text x="11" y="444" font-size= "12" font-weight = "normal" style="fill:rgb(0, 0, 0)" font-family="Arial">Ctrl-m l</text>
<text x="191" y="444" font-size= "12" font-weight = "normal" style="fill:rgb(0, 0, 0)" font-family="Arial">toggle line numbers</text>
<line x1="180" y1="432" x2="180" y2="449" style="stroke:rgb(0, 0, 0); stroke-width:1"/>
<rect  height="17" width="462"  style=" fill:rgb(255, 255, 255); stroke:rgb(0, 0, 0); stroke-width:1"  x="1"  y="449" />
<text x="11" y="461" font-size= "12" font-weight = "normal" style="fill:rgb(0, 0, 0)" font-family="Arial">Ctrl-m s</text>
<text x="191" y="461" font-size= "12" font-weight = "normal" style="fill:rgb(0, 0, 0)" font-family="Arial">save notebook</text>
<line x1="180" y1="449" x2="180" y2="466" style="stroke:rgb(0, 0, 0); stroke-width:1"/>
<rect  height="17" width="462"  style=" fill:rgb(255, 255, 255); stroke:rgb(0, 0, 0); stroke-width:1"  x="1"  y="466" />
<text x="11" y="478" font-size= "12" font-weight = "normal" style="fill:rgb(0, 0, 0)" font-family="Arial">Ctrl-m j</text>
<text x="191" y="478" font-size= "12" font-weight = "normal" style="fill:rgb(0, 0, 0)" font-family="Arial">move cell down</text>
<line x1="180" y1="466" x2="180" y2="483" style="stroke:rgb(0, 0, 0); stroke-width:1"/>
<rect  height="17" width="462"  style=" fill:rgb(255, 255, 255); stroke:rgb(0, 0, 0); stroke-width:1"  x="1"  y="483" />
<text x="11" y="495" font-size= "12" font-weight = "normal" style="fill:rgb(0, 0, 0)" font-family="Arial">Ctrl-m k</text>
<text x="191" y="495" font-size= "12" font-weight = "normal" style="fill:rgb(0, 0, 0)" font-family="Arial">move cell up</text>
<line x1="180" y1="483" x2="180" y2="500" style="stroke:rgb(0, 0, 0); stroke-width:1"/>
<rect  height="17" width="462"  style=" fill:rgb(255, 255, 255); stroke:rgb(0, 0, 0); stroke-width:1"  x="1"  y="500" />
<text x="11" y="512" font-size= "12" font-weight = "normal" style="fill:rgb(0, 0, 0)" font-family="Arial">Ctrl-m y</text>
<text x="191" y="512" font-size= "12" font-weight = "normal" style="fill:rgb(0, 0, 0)" font-family="Arial">code cell</text>
<line x1="180" y1="500" x2="180" y2="517" style="stroke:rgb(0, 0, 0); stroke-width:1"/>
<rect  height="17" width="462"  style=" fill:rgb(255, 255, 255); stroke:rgb(0, 0, 0); stroke-width:1"  x="1"  y="517" />
<text x="11" y="529" font-size= "12" font-weight = "normal" style="fill:rgb(0, 0, 0)" font-family="Arial">Ctrl-m m</text>
<text x="191" y="529" font-size= "12" font-weight = "normal" style="fill:rgb(0, 0, 0)" font-family="Arial">markdown cell</text>
<line x1="180" y1="517" x2="180" y2="534" style="stroke:rgb(0, 0, 0); stroke-width:1"/>
<rect  height="17" width="462"  style=" fill:rgb(255, 255, 255); stroke:rgb(0, 0, 0); stroke-width:1"  x="1"  y="534" />
<text x="11" y="546" font-size= "12" font-weight = "normal" style="fill:rgb(0, 0, 0)" font-family="Arial">Ctrl-m t</text>
<text x="191" y="546" font-size= "12" font-weight = "normal" style="fill:rgb(0, 0, 0)" font-family="Arial">raw cell</text>
<line x1="180" y1="534" x2="180" y2="551" style="stroke:rgb(0, 0, 0); stroke-width:1"/>
<rect  height="17" width="462"  style=" fill:rgb(255, 255, 255); stroke:rgb(0, 0, 0); stroke-width:1"  x="1"  y="551" />
<text x="11" y="563" font-size= "12" font-weight = "normal" style="fill:rgb(0, 0, 0)" font-family="Arial">Ctrl-m 1-6</text>
<text x="191" y="563" font-size= "12" font-weight = "normal" style="fill:rgb(0, 0, 0)" font-family="Arial">heading 1-6 cell</text>
<line x1="180" y1="551" x2="180" y2="568" style="stroke:rgb(0, 0, 0); stroke-width:1"/>
<rect  height="17" width="462"  style=" fill:rgb(255, 255, 255); stroke:rgb(0, 0, 0); stroke-width:1"  x="1"  y="568" />
<text x="11" y="580" font-size= "12" font-weight = "normal" style="fill:rgb(0, 0, 0)" font-family="Arial">Ctrl-m p</text>
<text x="191" y="580" font-size= "12" font-weight = "normal" style="fill:rgb(0, 0, 0)" font-family="Arial">select previous</text>
<line x1="180" y1="568" x2="180" y2="585" style="stroke:rgb(0, 0, 0); stroke-width:1"/>
<rect  height="17" width="462"  style=" fill:rgb(255, 255, 255); stroke:rgb(0, 0, 0); stroke-width:1"  x="1"  y="585" />
<text x="11" y="597" font-size= "12" font-weight = "normal" style="fill:rgb(0, 0, 0)" font-family="Arial">Ctrl-m n</text>
<text x="191" y="597" font-size= "12" font-weight = "normal" style="fill:rgb(0, 0, 0)" font-family="Arial">select next</text>
<line x1="180" y1="585" x2="180" y2="602" style="stroke:rgb(0, 0, 0); stroke-width:1"/>
<rect  height="17" width="462"  style=" fill:rgb(255, 255, 255); stroke:rgb(0, 0, 0); stroke-width:1"  x="1"  y="602" />
<text x="11" y="614" font-size= "12" font-weight = "normal" style="fill:rgb(0, 0, 0)" font-family="Arial">Ctrl-m i</text>
<text x="191" y="614" font-size= "12" font-weight = "normal" style="fill:rgb(0, 0, 0)" font-family="Arial">interrupt kernel</text>
<line x1="180" y1="602" x2="180" y2="619" style="stroke:rgb(0, 0, 0); stroke-width:1"/>
<rect  height="17" width="462"  style=" fill:rgb(255, 255, 255); stroke:rgb(0, 0, 0); stroke-width:1"  x="1"  y="619" />
<text x="11" y="631" font-size= "12" font-weight = "normal" style="fill:rgb(0, 0, 0)" font-family="Arial">Ctrl-m .</text>
<text x="191" y="631" font-size= "12" font-weight = "normal" style="fill:rgb(0, 0, 0)" font-family="Arial">restart kernel</text>
<line x1="180" y1="619" x2="180" y2="636" style="stroke:rgb(0, 0, 0); stroke-width:1"/>
<rect  height="17" width="462"  style=" fill:rgb(255, 255, 255); stroke:rgb(0, 0, 0); stroke-width:1"  x="1"  y="636" />
<text x="11" y="648" font-size= "12" font-weight = "normal" style="fill:rgb(0, 0, 0)" font-family="Arial">Ctrl-m h</text>
<text x="191" y="648" font-size= "12" font-weight = "normal" style="fill:rgb(0, 0, 0)" font-family="Arial">show keyboard shortcuts</text>
<line x1="180" y1="636" x2="180" y2="653" style="stroke:rgb(0, 0, 0); stroke-width:1"/>
<rect  height="8" width="462"  style=" fill:rgb(255, 255, 255); stroke:rgb(0, 0, 0); stroke-width:1"  x="1"  y="653" />
<rect  height="25" width="515"  style=" fill:rgb(213, 224, 197); stroke:rgb(0, 0, 0); stroke-width:1"  x="475"  y="1" />
<text x="481" y="18" font-size= "14" font-weight = "bold" style="fill:rgb(0, 0, 0)" font-family="Arial">Within IPython:</text>
<rect  height="8" width="515"  style=" fill:rgb(255, 255, 255); stroke:rgb(0, 0, 0); stroke-width:1"  x="475"  y="26" />
<rect  height="31" width="515"  style=" fill:rgb(255, 255, 255); stroke:rgb(0, 0, 0); stroke-width:1"  x="475"  y="34" />
<text x="485" y="46" font-size= "12" font-weight = "normal" style="fill:rgb(0, 0, 0)" font-family="Arial">obj?, obj??<tspan x="485" y="60"> </tspan></text>
<text x="685" y="46" font-size= "12" font-weight = "normal" style="fill:rgb(0, 0, 0)" font-family="Arial">Get help, or more help for object (also works as<tspan x="685" y="60">?obj, ??obj).</tspan></text>
<line x1="674" y1="34" x2="674" y2="65" style="stroke:rgb(0, 0, 0); stroke-width:1"/>
<rect  height="17" width="515"  style=" fill:rgb(255, 255, 255); stroke:rgb(0, 0, 0); stroke-width:1"  x="475"  y="65" />
<text x="485" y="77" font-size= "12" font-weight = "normal" style="fill:rgb(0, 0, 0)" font-family="Arial">?foo.*abc*</text>
<text x="685" y="77" font-size= "12" font-weight = "normal" style="fill:rgb(0, 0, 0)" font-family="Arial">List names in 'foo' containing 'abc' in them.</text>
<line x1="674" y1="65" x2="674" y2="82" style="stroke:rgb(0, 0, 0); stroke-width:1"/>
<rect  height="17" width="515"  style=" fill:rgb(255, 255, 255); stroke:rgb(0, 0, 0); stroke-width:1"  x="475"  y="82" />
<text x="485" y="94" font-size= "12" font-weight = "normal" style="fill:rgb(0, 0, 0)" font-family="Arial">%magic</text>
<text x="685" y="94" font-size= "12" font-weight = "normal" style="fill:rgb(0, 0, 0)" font-family="Arial">Information about IPython's 'magic' % functions.</text>
<line x1="674" y1="82" x2="674" y2="99" style="stroke:rgb(0, 0, 0); stroke-width:1"/>
<rect  height="8" width="515"  style=" fill:rgb(255, 255, 255); stroke:rgb(0, 0, 0); stroke-width:1"  x="475"  y="99" />
<rect  height="45" width="515"  style=" fill:rgb(255, 255, 255); stroke:rgb(0, 0, 0); stroke-width:1"  x="475"  y="107" />
<text x="485" y="119" font-size= "12" font-weight = "normal" style="fill:rgb(0, 0, 0)" font-family="Arial">Magic functions are prefixed by % or %%, and typically take their arguments<tspan x="485" y="133">without parentheses, quotes or even commas for convenience.  Line magics take a</tspan><tspan x="485" y="147">single % and cell magics are prefixed with two %%.</tspan></text>
<rect  height="8" width="515"  style=" fill:rgb(255, 255, 255); stroke:rgb(0, 0, 0); stroke-width:1"  x="475"  y="152" />
<rect  height="25" width="515"  style=" fill:rgb(213, 224, 197); stroke:rgb(0, 0, 0); stroke-width:1"  x="475"  y="160" />
<text x="481" y="177" font-size= "14" font-weight = "bold" style="fill:rgb(0, 0, 0)" font-family="Arial">Example magic function calls:</text>
<rect  height="8" width="515"  style=" fill:rgb(255, 255, 255); stroke:rgb(0, 0, 0); stroke-width:1"  x="475"  y="185" />
<rect  height="17" width="515"  style=" fill:rgb(255, 255, 255); stroke:rgb(0, 0, 0); stroke-width:1"  x="475"  y="193" />
<text x="485" y="205" font-size= "12" font-weight = "normal" style="fill:rgb(0, 0, 0)" font-family="Arial">%alias d ls -F</text>
<text x="685" y="205" font-size= "12" font-weight = "normal" style="fill:rgb(0, 0, 0)" font-family="Arial">'d' is now an alias for 'ls -F'</text>
<line x1="674" y1="193" x2="674" y2="210" style="stroke:rgb(0, 0, 0); stroke-width:1"/>
<rect  height="17" width="515"  style=" fill:rgb(255, 255, 255); stroke:rgb(0, 0, 0); stroke-width:1"  x="475"  y="210" />
<text x="485" y="222" font-size= "12" font-weight = "normal" style="fill:rgb(0, 0, 0)" font-family="Arial">alias d ls -F</text>
<text x="685" y="222" font-size= "12" font-weight = "normal" style="fill:rgb(0, 0, 0)" font-family="Arial">Works if 'alias' not a python name</text>
<line x1="674" y1="210" x2="674" y2="227" style="stroke:rgb(0, 0, 0); stroke-width:1"/>
<rect  height="17" width="515"  style=" fill:rgb(255, 255, 255); stroke:rgb(0, 0, 0); stroke-width:1"  x="475"  y="227" />
<text x="485" y="239" font-size= "12" font-weight = "normal" style="fill:rgb(0, 0, 0)" font-family="Arial">alist = %alias</text>
<text x="685" y="239" font-size= "12" font-weight = "normal" style="fill:rgb(0, 0, 0)" font-family="Arial">Get list of aliases to 'alist'</text>
<line x1="674" y1="227" x2="674" y2="244" style="stroke:rgb(0, 0, 0); stroke-width:1"/>
<rect  height="17" width="515"  style=" fill:rgb(255, 255, 255); stroke:rgb(0, 0, 0); stroke-width:1"  x="475"  y="244" />
<text x="485" y="256" font-size= "12" font-weight = "normal" style="fill:rgb(0, 0, 0)" font-family="Arial">cd /usr/share</text>
<text x="685" y="256" font-size= "12" font-weight = "normal" style="fill:rgb(0, 0, 0)" font-family="Arial">Obvious. cd -&lt;tab&gt; to choose from visited dirs.</text>
<line x1="674" y1="244" x2="674" y2="261" style="stroke:rgb(0, 0, 0); stroke-width:1"/>
<rect  height="17" width="515"  style=" fill:rgb(255, 255, 255); stroke:rgb(0, 0, 0); stroke-width:1"  x="475"  y="261" />
<text x="485" y="273" font-size= "12" font-weight = "normal" style="fill:rgb(0, 0, 0)" font-family="Arial">%cd??</text>
<text x="685" y="273" font-size= "12" font-weight = "normal" style="fill:rgb(0, 0, 0)" font-family="Arial">See help AND source for magic %cd</text>
<line x1="674" y1="261" x2="674" y2="278" style="stroke:rgb(0, 0, 0); stroke-width:1"/>
<rect  height="17" width="515"  style=" fill:rgb(255, 255, 255); stroke:rgb(0, 0, 0); stroke-width:1"  x="475"  y="278" />
<text x="485" y="290" font-size= "12" font-weight = "normal" style="fill:rgb(0, 0, 0)" font-family="Arial">%timeit x=10</text>
<text x="685" y="290" font-size= "12" font-weight = "normal" style="fill:rgb(0, 0, 0)" font-family="Arial">time the 'x=10' statement with high precision.</text>
<line x1="674" y1="278" x2="674" y2="295" style="stroke:rgb(0, 0, 0); stroke-width:1"/>
<rect  height="31" width="515"  style=" fill:rgb(255, 255, 255); stroke:rgb(0, 0, 0); stroke-width:1"  x="475"  y="295" />
<text x="485" y="307" font-size= "12" font-weight = "normal" style="fill:rgb(0, 0, 0)" font-family="Arial">%%timeit x=2**100<tspan x="485" y="321">x**100</tspan></text>
<text x="685" y="307" font-size= "12" font-weight = "normal" style="fill:rgb(0, 0, 0)" font-family="Arial">time 'x*100' with a setup of 'x=2**100'; setup code is not<tspan x="685" y="321">counted.  This is an example of a cell magic.</tspan></text>
<line x1="674" y1="295" x2="674" y2="326" style="stroke:rgb(0, 0, 0); stroke-width:1"/>
<rect  height="8" width="515"  style=" fill:rgb(255, 255, 255); stroke:rgb(0, 0, 0); stroke-width:1"  x="475"  y="326" />
<rect  height="25" width="515"  style=" fill:rgb(213, 224, 197); stroke:rgb(0, 0, 0); stroke-width:1"  x="475"  y="334" />
<text x="481" y="351" font-size= "14" font-weight = "bold" style="fill:rgb(0, 0, 0)" font-family="Arial">System commands:</text>
<rect  height="8" width="515"  style=" fill:rgb(255, 255, 255); stroke:rgb(0, 0, 0); stroke-width:1"  x="475"  y="359" />
<rect  height="17" width="515"  style=" fill:rgb(255, 255, 255); stroke:rgb(0, 0, 0); stroke-width:1"  x="475"  y="367" />
<text x="485" y="379" font-size= "12" font-weight = "normal" style="fill:rgb(0, 0, 0)" font-family="Arial">!cp a.txt b/</text>
<text x="685" y="379" font-size= "12" font-weight = "normal" style="fill:rgb(0, 0, 0)" font-family="Arial">System command escape, calls os.system()</text>
<line x1="674" y1="367" x2="674" y2="384" style="stroke:rgb(0, 0, 0); stroke-width:1"/>
<rect  height="17" width="515"  style=" fill:rgb(255, 255, 255); stroke:rgb(0, 0, 0); stroke-width:1"  x="475"  y="384" />
<text x="485" y="396" font-size= "12" font-weight = "normal" style="fill:rgb(0, 0, 0)" font-family="Arial">cp a.txt b/</text>
<text x="685" y="396" font-size= "12" font-weight = "normal" style="fill:rgb(0, 0, 0)" font-family="Arial">after %rehashx, most system commands work without !</text>
<line x1="674" y1="384" x2="674" y2="401" style="stroke:rgb(0, 0, 0); stroke-width:1"/>
<rect  height="17" width="515"  style=" fill:rgb(255, 255, 255); stroke:rgb(0, 0, 0); stroke-width:1"  x="475"  y="401" />
<text x="485" y="413" font-size= "12" font-weight = "normal" style="fill:rgb(0, 0, 0)" font-family="Arial">cp ${f}.txt $bar</text>
<text x="685" y="413" font-size= "12" font-weight = "normal" style="fill:rgb(0, 0, 0)" font-family="Arial">Variable expansion in magics and system commands</text>
<line x1="674" y1="401" x2="674" y2="418" style="stroke:rgb(0, 0, 0); stroke-width:1"/>
<rect  height="17" width="515"  style=" fill:rgb(255, 255, 255); stroke:rgb(0, 0, 0); stroke-width:1"  x="475"  y="418" />
<text x="485" y="430" font-size= "12" font-weight = "normal" style="fill:rgb(0, 0, 0)" font-family="Arial">files = !ls /usr</text>
<text x="685" y="430" font-size= "12" font-weight = "normal" style="fill:rgb(0, 0, 0)" font-family="Arial">Capture sytem command output</text>
<line x1="674" y1="418" x2="674" y2="435" style="stroke:rgb(0, 0, 0); stroke-width:1"/>
<rect  height="17" width="515"  style=" fill:rgb(255, 255, 255); stroke:rgb(0, 0, 0); stroke-width:1"  x="475"  y="435" />
<text x="485" y="447" font-size= "12" font-weight = "normal" style="fill:rgb(0, 0, 0)" font-family="Arial">files.s, files.l, files.n</text>
<text x="685" y="447" font-size= "12" font-weight = "normal" style="fill:rgb(0, 0, 0)" font-family="Arial">"a b c", ['a','b','c'], 'a\nb\nc'</text>
<line x1="674" y1="435" x2="674" y2="452" style="stroke:rgb(0, 0, 0); stroke-width:1"/>
<rect  height="8" width="515"  style=" fill:rgb(255, 255, 255); stroke:rgb(0, 0, 0); stroke-width:1"  x="475"  y="452" />
<rect  height="25" width="515"  style=" fill:rgb(213, 224, 197); stroke:rgb(0, 0, 0); stroke-width:1"  x="475"  y="460" />
<text x="481" y="477" font-size= "14" font-weight = "bold" style="fill:rgb(0, 0, 0)" font-family="Arial">History:</text>
<rect  height="8" width="515"  style=" fill:rgb(255, 255, 255); stroke:rgb(0, 0, 0); stroke-width:1"  x="475"  y="485" />
<rect  height="17" width="515"  style=" fill:rgb(255, 255, 255); stroke:rgb(0, 0, 0); stroke-width:1"  x="475"  y="493" />
<text x="485" y="505" font-size= "12" font-weight = "normal" style="fill:rgb(0, 0, 0)" font-family="Arial">_i, _ii, _iii</text>
<text x="685" y="505" font-size= "12" font-weight = "normal" style="fill:rgb(0, 0, 0)" font-family="Arial">Previous, next previous, next next previous input</text>
<line x1="674" y1="493" x2="674" y2="510" style="stroke:rgb(0, 0, 0); stroke-width:1"/>
<rect  height="17" width="515"  style=" fill:rgb(255, 255, 255); stroke:rgb(0, 0, 0); stroke-width:1"  x="475"  y="510" />
<text x="485" y="522" font-size= "12" font-weight = "normal" style="fill:rgb(0, 0, 0)" font-family="Arial">_i4, _ih[2:5]</text>
<text x="685" y="522" font-size= "12" font-weight = "normal" style="fill:rgb(0, 0, 0)" font-family="Arial">Input history line 4, lines 2-4</text>
<line x1="674" y1="510" x2="674" y2="527" style="stroke:rgb(0, 0, 0); stroke-width:1"/>
<rect  height="17" width="515"  style=" fill:rgb(255, 255, 255); stroke:rgb(0, 0, 0); stroke-width:1"  x="475"  y="527" />
<text x="485" y="539" font-size= "12" font-weight = "normal" style="fill:rgb(0, 0, 0)" font-family="Arial">exec _i81</text>
<text x="685" y="539" font-size= "12" font-weight = "normal" style="fill:rgb(0, 0, 0)" font-family="Arial">Execute input history line #81 again</text>
<line x1="674" y1="527" x2="674" y2="544" style="stroke:rgb(0, 0, 0); stroke-width:1"/>
<rect  height="17" width="515"  style=" fill:rgb(255, 255, 255); stroke:rgb(0, 0, 0); stroke-width:1"  x="475"  y="544" />
<text x="485" y="556" font-size= "12" font-weight = "normal" style="fill:rgb(0, 0, 0)" font-family="Arial">%rep 81</text>
<text x="685" y="556" font-size= "12" font-weight = "normal" style="fill:rgb(0, 0, 0)" font-family="Arial">Edit input history line #81</text>
<line x1="674" y1="544" x2="674" y2="561" style="stroke:rgb(0, 0, 0); stroke-width:1"/>
<rect  height="17" width="515"  style=" fill:rgb(255, 255, 255); stroke:rgb(0, 0, 0); stroke-width:1"  x="475"  y="561" />
<text x="485" y="573" font-size= "12" font-weight = "normal" style="fill:rgb(0, 0, 0)" font-family="Arial">_, __, ___</text>
<text x="685" y="573" font-size= "12" font-weight = "normal" style="fill:rgb(0, 0, 0)" font-family="Arial">previous, next previous, next next previous output</text>
<line x1="674" y1="561" x2="674" y2="578" style="stroke:rgb(0, 0, 0); stroke-width:1"/>
<rect  height="17" width="515"  style=" fill:rgb(255, 255, 255); stroke:rgb(0, 0, 0); stroke-width:1"  x="475"  y="578" />
<text x="485" y="590" font-size= "12" font-weight = "normal" style="fill:rgb(0, 0, 0)" font-family="Arial">_dh</text>
<text x="685" y="590" font-size= "12" font-weight = "normal" style="fill:rgb(0, 0, 0)" font-family="Arial">Directory history</text>
<line x1="674" y1="578" x2="674" y2="595" style="stroke:rgb(0, 0, 0); stroke-width:1"/>
<rect  height="17" width="515"  style=" fill:rgb(255, 255, 255); stroke:rgb(0, 0, 0); stroke-width:1"  x="475"  y="595" />
<text x="485" y="607" font-size= "12" font-weight = "normal" style="fill:rgb(0, 0, 0)" font-family="Arial">_oh</text>
<text x="685" y="607" font-size= "12" font-weight = "normal" style="fill:rgb(0, 0, 0)" font-family="Arial">Output history</text>
<line x1="674" y1="595" x2="674" y2="612" style="stroke:rgb(0, 0, 0); stroke-width:1"/>
<rect  height="17" width="515"  style=" fill:rgb(255, 255, 255); stroke:rgb(0, 0, 0); stroke-width:1"  x="475"  y="612" />
<text x="485" y="624" font-size= "12" font-weight = "normal" style="fill:rgb(0, 0, 0)" font-family="Arial">%hist</text>
<text x="685" y="624" font-size= "12" font-weight = "normal" style="fill:rgb(0, 0, 0)" font-family="Arial">Command history. '%hist -g foo' search history for 'foo'</text>
<line x1="674" y1="612" x2="674" y2="629" style="stroke:rgb(0, 0, 0); stroke-width:1"/>
<rect  height="8" width="515"  style=" fill:rgb(255, 255, 255); stroke:rgb(0, 0, 0); stroke-width:1"  x="475"  y="629" />
<rect  height="25" width="515"  style=" fill:rgb(213, 224, 197); stroke:rgb(0, 0, 0); stroke-width:1"  x="475"  y="637" />
<text x="481" y="654" font-size= "14" font-weight = "bold" style="fill:rgb(0, 0, 0)" font-family="Arial">Autocall:</text>
<rect  height="8" width="515"  style=" fill:rgb(255, 255, 255); stroke:rgb(0, 0, 0); stroke-width:1"  x="475"  y="662" />
<rect  height="17" width="515"  style=" fill:rgb(255, 255, 255); stroke:rgb(0, 0, 0); stroke-width:1"  x="475"  y="670" />
<text x="485" y="682" font-size= "12" font-weight = "normal" style="fill:rgb(0, 0, 0)" font-family="Arial">f 1,2</text>
<text x="685" y="682" font-size= "12" font-weight = "normal" style="fill:rgb(0, 0, 0)" font-family="Arial">f(1,2)  # Off by default, enable with %autocall magic.</text>
<line x1="674" y1="670" x2="674" y2="687" style="stroke:rgb(0, 0, 0); stroke-width:1"/>
<rect  height="17" width="515"  style=" fill:rgb(255, 255, 255); stroke:rgb(0, 0, 0); stroke-width:1"  x="475"  y="687" />
<text x="485" y="699" font-size= "12" font-weight = "normal" style="fill:rgb(0, 0, 0)" font-family="Arial">/f 1,2</text>
<text x="685" y="699" font-size= "12" font-weight = "normal" style="fill:rgb(0, 0, 0)" font-family="Arial">f(1,2) (forced autoparen)</text>
<line x1="674" y1="687" x2="674" y2="704" style="stroke:rgb(0, 0, 0); stroke-width:1"/>
<rect  height="17" width="515"  style=" fill:rgb(255, 255, 255); stroke:rgb(0, 0, 0); stroke-width:1"  x="475"  y="704" />
<text x="485" y="716" font-size= "12" font-weight = "normal" style="fill:rgb(0, 0, 0)" font-family="Arial">,f 1 2</text>
<text x="685" y="716" font-size= "12" font-weight = "normal" style="fill:rgb(0, 0, 0)" font-family="Arial">f("1","2")</text>
<line x1="674" y1="704" x2="674" y2="721" style="stroke:rgb(0, 0, 0); stroke-width:1"/>
<rect  height="17" width="515"  style=" fill:rgb(255, 255, 255); stroke:rgb(0, 0, 0); stroke-width:1"  x="475"  y="721" />
<text x="485" y="733" font-size= "12" font-weight = "normal" style="fill:rgb(0, 0, 0)" font-family="Arial">;f 1 2</text>
<text x="685" y="733" font-size= "12" font-weight = "normal" style="fill:rgb(0, 0, 0)" font-family="Arial">f("1 2")</text>
<line x1="674" y1="721" x2="674" y2="738" style="stroke:rgb(0, 0, 0); stroke-width:1"/>
<rect  height="8" width="515"  style=" fill:rgb(255, 255, 255); stroke:rgb(0, 0, 0); stroke-width:1"  x="475"  y="738" />
</svg>