<svg viewBox="0 0 1011 569" height="569" xmlns="http://www.w3.org/2000/svg" version="1.1">
<rect  height="25" width="502"  style=" fill:rgb(173, 216, 230); stroke:rgb(0, 0, 0); stroke-width:1"  x="1"  y="1" />
<text x="7" y="18" font-size= "14" font-weight = "bold" style="fill:rgb(0, 0, 0)" font-family="Arial">IPython -- An enhanced Interactive Python - Quick Reference Card</text>
<rect  height="8" width="502"  style=" fill:rgb(255, 255, 255); stroke:rgb(0, 0, 0); stroke-width:1"  x="1"  y="26" />
<rect  height="17" width="502"  style=" fill:rgb(255, 255, 255); stroke:rgb(0, 0, 0); stroke-width:1"  x="1"  y="34" />
<text x="11" y="46" font-size= "12" font-weight = "normal" style="fill:rgb(0, 0, 0)" font-family="Arial">ipython</text>
<text x="181" y="46" font-size= "12" font-weight = "normal" style="fill:rgb(0, 0, 0)" font-family="Arial">Open IPython terminal console</text>
<line x1="170" y1="34" x2="170" y2="51" style="stroke:rgb(0, 0, 0); stroke-width:1"/>
<rect  height="17" width="502"  style=" fill:rgb(255, 255, 255); stroke:rgb(0, 0, 0); stroke-width:1"  x="1"  y="51" />
<text x="11" y="63" font-size= "12" font-weight = "normal" style="fill:rgb(0, 0, 0)" font-family="Arial">juypter console</text>
<text x="181" y="63" font-size= "12" font-weight = "normal" style="fill:rgb(0, 0, 0)" font-family="Arial">Open terminal console (4.0 and later)</text>
<line x1="170" y1="51" x2="170" y2="68" style="stroke:rgb(0, 0, 0); stroke-width:1"/>
<rect  height="17" width="502"  style=" fill:rgb(255, 255, 255); stroke:rgb(0, 0, 0); stroke-width:1"  x="1"  y="68" />
<text x="11" y="80" font-size= "12" font-weight = "normal" style="fill:rgb(0, 0, 0)" font-family="Arial">ipython qtconsole</text>
<text x="181" y="80" font-size= "12" font-weight = "normal" style="fill:rgb(0, 0, 0)" font-family="Arial">Open IPython qtconsole</text>
<line x1="170" y1="68" x2="170" y2="85" style="stroke:rgb(0, 0, 0); stroke-width:1"/>
<rect  height="17" width="502"  style=" fill:rgb(255, 255, 255); stroke:rgb(0, 0, 0); stroke-width:1"  x="1"  y="85" />
<text x="11" y="97" font-size= "12" font-weight = "normal" style="fill:rgb(0, 0, 0)" font-family="Arial">juptyer qtconsole</text>
<text x="181" y="97" font-size= "12" font-weight = "normal" style="fill:rgb(0, 0, 0)" font-family="Arial">Open qtconsole (4.0 and later)</text>
<line x1="170" y1="85" x2="170" y2="102" style="stroke:rgb(0, 0, 0); stroke-width:1"/>
<rect  height="17" width="502"  style=" fill:rgb(255, 255, 255); stroke:rgb(0, 0, 0); stroke-width:1"  x="1"  y="102" />
<text x="11" y="114" font-size= "12" font-weight = "normal" style="fill:rgb(0, 0, 0)" font-family="Arial">ipython notebook</text>
<text x="181" y="114" font-size= "12" font-weight = "normal" style="fill:rgb(0, 0, 0)" font-family="Arial">Open IPython Notebook (browser interface)</text>
<line x1="170" y1="102" x2="170" y2="119" style="stroke:rgb(0, 0, 0); stroke-width:1"/>
<rect  height="17" width="502"  style=" fill:rgb(255, 255, 255); stroke:rgb(0, 0, 0); stroke-width:1"  x="1"  y="119" />
<text x="11" y="131" font-size= "12" font-weight = "normal" style="fill:rgb(0, 0, 0)" font-family="Arial">jupyter notebook</text>
<text x="181" y="131" font-size= "12" font-weight = "normal" style="fill:rgb(0, 0, 0)" font-family="Arial">Open Notebook (browser interface, 4.0 and later)</text>
<line x1="170" y1="119" x2="170" y2="136" style="stroke:rgb(0, 0, 0); stroke-width:1"/>
<rect  height="17" width="502"  style=" fill:rgb(255, 255, 255); stroke:rgb(0, 0, 0); stroke-width:1"  x="1"  y="136" />
<text x="11" y="148" font-size= "12" font-weight = "normal" style="fill:rgb(0, 0, 0)" font-family="Arial">ipython --help-all</text>
<text x="181" y="148" font-size= "12" font-weight = "normal" style="fill:rgb(0, 0, 0)" font-family="Arial">Show all IPython start flags</text>
<line x1="170" y1="136" x2="170" y2="153" style="stroke:rgb(0, 0, 0); stroke-width:1"/>
<rect  height="8" width="502"  style=" fill:rgb(255, 255, 255); stroke:rgb(0, 0, 0); stroke-width:1"  x="1"  y="153" />
<rect  height="25" width="502"  style=" fill:rgb(213, 224, 197); stroke:rgb(0, 0, 0); stroke-width:1"  x="1"  y="161" />
<text x="7" y="178" font-size= "14" font-weight = "bold" style="fill:rgb(0, 0, 0)" font-family="Arial">Within IPython:</text>
<rect  height="8" width="502"  style=" fill:rgb(255, 255, 255); stroke:rgb(0, 0, 0); stroke-width:1"  x="1"  y="186" />
<rect  height="31" width="502"  style=" fill:rgb(255, 255, 255); stroke:rgb(0, 0, 0); stroke-width:1"  x="1"  y="194" />
<text x="11" y="206" font-size= "12" font-weight = "normal" style="fill:rgb(0, 0, 0)" font-family="Arial">obj?, obj??<tspan x="11" y="220"> </tspan></text>
<text x="181" y="206" font-size= "12" font-weight = "normal" style="fill:rgb(0, 0, 0)" font-family="Arial">Get help, or more help for object (also works as<tspan x="181" y="220">?obj, ??obj).</tspan></text>
<line x1="170" y1="194" x2="170" y2="225" style="stroke:rgb(0, 0, 0); stroke-width:1"/>
<rect  height="17" width="502"  style=" fill:rgb(255, 255, 255); stroke:rgb(0, 0, 0); stroke-width:1"  x="1"  y="225" />
<text x="11" y="237" font-size= "12" font-weight = "normal" style="fill:rgb(0, 0, 0)" font-family="Arial">?foo.*abc*</text>
<text x="181" y="237" font-size= "12" font-weight = "normal" style="fill:rgb(0, 0, 0)" font-family="Arial">List names in 'foo' containing 'abc' in them.</text>
<line x1="170" y1="225" x2="170" y2="242" style="stroke:rgb(0, 0, 0); stroke-width:1"/>
<rect  height="17" width="502"  style=" fill:rgb(255, 255, 255); stroke:rgb(0, 0, 0); stroke-width:1"  x="1"  y="242" />
<text x="11" y="254" font-size= "12" font-weight = "normal" style="fill:rgb(0, 0, 0)" font-family="Arial">%magic</text>
<text x="181" y="254" font-size= "12" font-weight = "normal" style="fill:rgb(0, 0, 0)" font-family="Arial">Information about IPython's 'magic' % functions.</text>
<line x1="170" y1="242" x2="170" y2="259" style="stroke:rgb(0, 0, 0); stroke-width:1"/>
<rect  height="8" width="502"  style=" fill:rgb(255, 255, 255); stroke:rgb(0, 0, 0); stroke-width:1"  x="1"  y="259" />
<rect  height="45" width="502"  style=" fill:rgb(255, 255, 255); stroke:rgb(0, 0, 0); stroke-width:1"  x="1"  y="267" />
<text x="11" y="279" font-size= "12" font-weight = "normal" style="fill:rgb(0, 0, 0)" font-family="Arial">Magic functions are prefixed by % or %%, and typically take their arguments<tspan x="11" y="293">without parentheses, quotes or even commas for convenience.  Line magics take a</tspan><tspan x="11" y="307">single % and cell magics are prefixed with two %%.</tspan></text>
<rect  height="8" width="502"  style=" fill:rgb(255, 255, 255); stroke:rgb(0, 0, 0); stroke-width:1"  x="1"  y="312" />
<rect  height="25" width="502"  style=" fill:rgb(213, 224, 197); stroke:rgb(0, 0, 0); stroke-width:1"  x="1"  y="320" />
<text x="7" y="337" font-size= "14" font-weight = "bold" style="fill:rgb(0, 0, 0)" font-family="Arial">Example magic function calls:</text>
<rect  height="8" width="502"  style=" fill:rgb(255, 255, 255); stroke:rgb(0, 0, 0); stroke-width:1"  x="1"  y="345" />
<rect  height="17" width="502"  style=" fill:rgb(255, 255, 255); stroke:rgb(0, 0, 0); stroke-width:1"  x="1"  y="353" />
<text x="11" y="365" font-size= "12" font-weight = "normal" style="fill:rgb(0, 0, 0)" font-family="Arial">%alias d ls -F</text>
<text x="181" y="365" font-size= "12" font-weight = "normal" style="fill:rgb(0, 0, 0)" font-family="Arial">'d' is now an alias for 'ls -F'</text>
<line x1="170" y1="353" x2="170" y2="370" style="stroke:rgb(0, 0, 0); stroke-width:1"/>
<rect  height="17" width="502"  style=" fill:rgb(255, 255, 255); stroke:rgb(0, 0, 0); stroke-width:1"  x="1"  y="370" />
<text x="11" y="382" font-size= "12" font-weight = "normal" style="fill:rgb(0, 0, 0)" font-family="Arial">alias d ls -F</text>
<text x="181" y="382" font-size= "12" font-weight = "normal" style="fill:rgb(0, 0, 0)" font-family="Arial">Works if 'alias' not a python name</text>
<line x1="170" y1="370" x2="170" y2="387" style="stroke:rgb(0, 0, 0); stroke-width:1"/>
<rect  height="17" width="502"  style=" fill:rgb(255, 255, 255); stroke:rgb(0, 0, 0); stroke-width:1"  x="1"  y="387" />
<text x="11" y="399" font-size= "12" font-weight = "normal" style="fill:rgb(0, 0, 0)" font-family="Arial">alist = %alias</text>
<text x="181" y="399" font-size= "12" font-weight = "normal" style="fill:rgb(0, 0, 0)" font-family="Arial">Get list of aliases to 'alist'</text>
<line x1="170" y1="387" x2="170" y2="404" style="stroke:rgb(0, 0, 0); stroke-width:1"/>
<rect  height="17" width="502"  style=" fill:rgb(255, 255, 255); stroke:rgb(0, 0, 0); stroke-width:1"  x="1"  y="404" />
<text x="11" y="416" font-size= "12" font-weight = "normal" style="fill:rgb(0, 0, 0)" font-family="Arial">cd /usr/share</text>
<text x="181" y="416" font-size= "12" font-weight = "normal" style="fill:rgb(0, 0, 0)" font-family="Arial">Obvious. cd -&lt;tab&gt; to choose from visited dirs.</text>
<line x1="170" y1="404" x2="170" y2="421" style="stroke:rgb(0, 0, 0); stroke-width:1"/>
<rect  height="17" width="502"  style=" fill:rgb(255, 255, 255); stroke:rgb(0, 0, 0); stroke-width:1"  x="1"  y="421" />
<text x="11" y="433" font-size= "12" font-weight = "normal" style="fill:rgb(0, 0, 0)" font-family="Arial">%cd??</text>
<text x="181" y="433" font-size= "12" font-weight = "normal" style="fill:rgb(0, 0, 0)" font-family="Arial">See help AND source for magic %cd</text>
<line x1="170" y1="421" x2="170" y2="438" style="stroke:rgb(0, 0, 0); stroke-width:1"/>
<rect  height="17" width="502"  style=" fill:rgb(255, 255, 255); stroke:rgb(0, 0, 0); stroke-width:1"  x="1"  y="438" />
<text x="11" y="450" font-size= "12" font-weight = "normal" style="fill:rgb(0, 0, 0)" font-family="Arial">%timeit x=10</text>
<text x="181" y="450" font-size= "12" font-weight = "normal" style="fill:rgb(0, 0, 0)" font-family="Arial">time the 'x=10' statement with high precision.</text>
<line x1="170" y1="438" x2="170" y2="455" style="stroke:rgb(0, 0, 0); stroke-width:1"/>
<rect  height="31" width="502"  style=" fill:rgb(255, 255, 255); stroke:rgb(0, 0, 0); stroke-width:1"  x="1"  y="455" />
<text x="11" y="467" font-size= "12" font-weight = "normal" style="fill:rgb(0, 0, 0)" font-family="Arial">%%timeit x=2**100<tspan x="11" y="481">x**100</tspan></text>
<text x="181" y="467" font-size= "12" font-weight = "normal" style="fill:rgb(0, 0, 0)" font-family="Arial">time 'x**100' with a setup of 'x=2**100'; setup code is not<tspan x="181" y="481">counted.  This is an example of a cell magic.</tspan></text>
<line x1="170" y1="455" x2="170" y2="486" style="stroke:rgb(0, 0, 0); stroke-width:1"/>
<rect  height="8" width="502"  style=" fill:rgb(255, 255, 255); stroke:rgb(0, 0, 0); stroke-width:1"  x="1"  y="486" />
<rect  height="25" width="495"  style=" fill:rgb(213, 224, 197); stroke:rgb(0, 0, 0); stroke-width:1"  x="515"  y="1" />
<text x="521" y="18" font-size= "14" font-weight = "bold" style="fill:rgb(0, 0, 0)" font-family="Arial">System commands:</text>
<rect  height="8" width="495"  style=" fill:rgb(255, 255, 255); stroke:rgb(0, 0, 0); stroke-width:1"  x="515"  y="26" />
<rect  height="17" width="495"  style=" fill:rgb(255, 255, 255); stroke:rgb(0, 0, 0); stroke-width:1"  x="515"  y="34" />
<text x="525" y="46" font-size= "12" font-weight = "normal" style="fill:rgb(0, 0, 0)" font-family="Arial">!cp a.txt b/</text>
<text x="655" y="46" font-size= "12" font-weight = "normal" style="fill:rgb(0, 0, 0)" font-family="Arial">System command escape, calls os.system()</text>
<line x1="644" y1="34" x2="644" y2="51" style="stroke:rgb(0, 0, 0); stroke-width:1"/>
<rect  height="17" width="495"  style=" fill:rgb(255, 255, 255); stroke:rgb(0, 0, 0); stroke-width:1"  x="515"  y="51" />
<text x="525" y="63" font-size= "12" font-weight = "normal" style="fill:rgb(0, 0, 0)" font-family="Arial">cp a.txt b/</text>
<text x="655" y="63" font-size= "12" font-weight = "normal" style="fill:rgb(0, 0, 0)" font-family="Arial">after %rehashx, most system commands work without !</text>
<line x1="644" y1="51" x2="644" y2="68" style="stroke:rgb(0, 0, 0); stroke-width:1"/>
<rect  height="17" width="495"  style=" fill:rgb(255, 255, 255); stroke:rgb(0, 0, 0); stroke-width:1"  x="515"  y="68" />
<text x="525" y="80" font-size= "12" font-weight = "normal" style="fill:rgb(0, 0, 0)" font-family="Arial">cp ${f}.txt $bar</text>
<text x="655" y="80" font-size= "12" font-weight = "normal" style="fill:rgb(0, 0, 0)" font-family="Arial">Variable expansion in magics and system commands</text>
<line x1="644" y1="68" x2="644" y2="85" style="stroke:rgb(0, 0, 0); stroke-width:1"/>
<rect  height="17" width="495"  style=" fill:rgb(255, 255, 255); stroke:rgb(0, 0, 0); stroke-width:1"  x="515"  y="85" />
<text x="525" y="97" font-size= "12" font-weight = "normal" style="fill:rgb(0, 0, 0)" font-family="Arial">files = !ls /usr</text>
<text x="655" y="97" font-size= "12" font-weight = "normal" style="fill:rgb(0, 0, 0)" font-family="Arial">Capture sytem command output</text>
<line x1="644" y1="85" x2="644" y2="102" style="stroke:rgb(0, 0, 0); stroke-width:1"/>
<rect  height="17" width="495"  style=" fill:rgb(255, 255, 255); stroke:rgb(0, 0, 0); stroke-width:1"  x="515"  y="102" />
<text x="525" y="114" font-size= "12" font-weight = "normal" style="fill:rgb(0, 0, 0)" font-family="Arial">files.s, files.l, files.n</text>
<text x="655" y="114" font-size= "12" font-weight = "normal" style="fill:rgb(0, 0, 0)" font-family="Arial">"a b c", ['a','b','c'], 'a\nb\nc'</text>
<line x1="644" y1="102" x2="644" y2="119" style="stroke:rgb(0, 0, 0); stroke-width:1"/>
<rect  height="8" width="495"  style=" fill:rgb(255, 255, 255); stroke:rgb(0, 0, 0); stroke-width:1"  x="515"  y="119" />
<rect  height="25" width="495"  style=" fill:rgb(213, 224, 197); stroke:rgb(0, 0, 0); stroke-width:1"  x="515"  y="127" />
<text x="521" y="144" font-size= "14" font-weight = "bold" style="fill:rgb(0, 0, 0)" font-family="Arial">History:</text>
<rect  height="8" width="495"  style=" fill:rgb(255, 255, 255); stroke:rgb(0, 0, 0); stroke-width:1"  x="515"  y="152" />
<rect  height="17" width="495"  style=" fill:rgb(255, 255, 255); stroke:rgb(0, 0, 0); stroke-width:1"  x="515"  y="160" />
<text x="525" y="172" font-size= "12" font-weight = "normal" style="fill:rgb(0, 0, 0)" font-family="Arial">_i, _ii, _iii</text>
<text x="655" y="172" font-size= "12" font-weight = "normal" style="fill:rgb(0, 0, 0)" font-family="Arial">Previous, next previous, next next previous input</text>
<line x1="644" y1="160" x2="644" y2="177" style="stroke:rgb(0, 0, 0); stroke-width:1"/>
<rect  height="17" width="495"  style=" fill:rgb(255, 255, 255); stroke:rgb(0, 0, 0); stroke-width:1"  x="515"  y="177" />
<text x="525" y="189" font-size= "12" font-weight = "normal" style="fill:rgb(0, 0, 0)" font-family="Arial">_i4, _ih[2:5]</text>
<text x="655" y="189" font-size= "12" font-weight = "normal" style="fill:rgb(0, 0, 0)" font-family="Arial">Input history line 4, lines 2-4</text>
<line x1="644" y1="177" x2="644" y2="194" style="stroke:rgb(0, 0, 0); stroke-width:1"/>
<rect  height="17" width="495"  style=" fill:rgb(255, 255, 255); stroke:rgb(0, 0, 0); stroke-width:1"  x="515"  y="194" />
<text x="525" y="206" font-size= "12" font-weight = "normal" style="fill:rgb(0, 0, 0)" font-family="Arial">exec _i81</text>
<text x="655" y="206" font-size= "12" font-weight = "normal" style="fill:rgb(0, 0, 0)" font-family="Arial">Execute input history line #81 again</text>
<line x1="644" y1="194" x2="644" y2="211" style="stroke:rgb(0, 0, 0); stroke-width:1"/>
<rect  height="17" width="495"  style=" fill:rgb(255, 255, 255); stroke:rgb(0, 0, 0); stroke-width:1"  x="515"  y="211" />
<text x="525" y="223" font-size= "12" font-weight = "normal" style="fill:rgb(0, 0, 0)" font-family="Arial">%rep 81</text>
<text x="655" y="223" font-size= "12" font-weight = "normal" style="fill:rgb(0, 0, 0)" font-family="Arial">Edit input history line #81</text>
<line x1="644" y1="211" x2="644" y2="228" style="stroke:rgb(0, 0, 0); stroke-width:1"/>
<rect  height="17" width="495"  style=" fill:rgb(255, 255, 255); stroke:rgb(0, 0, 0); stroke-width:1"  x="515"  y="228" />
<text x="525" y="240" font-size= "12" font-weight = "normal" style="fill:rgb(0, 0, 0)" font-family="Arial">_, __, ___</text>
<text x="655" y="240" font-size= "12" font-weight = "normal" style="fill:rgb(0, 0, 0)" font-family="Arial">previous, next previous, next next previous output</text>
<line x1="644" y1="228" x2="644" y2="245" style="stroke:rgb(0, 0, 0); stroke-width:1"/>
<rect  height="17" width="495"  style=" fill:rgb(255, 255, 255); stroke:rgb(0, 0, 0); stroke-width:1"  x="515"  y="245" />
<text x="525" y="257" font-size= "12" font-weight = "normal" style="fill:rgb(0, 0, 0)" font-family="Arial">_dh</text>
<text x="655" y="257" font-size= "12" font-weight = "normal" style="fill:rgb(0, 0, 0)" font-family="Arial">Directory history</text>
<line x1="644" y1="245" x2="644" y2="262" style="stroke:rgb(0, 0, 0); stroke-width:1"/>
<rect  height="17" width="495"  style=" fill:rgb(255, 255, 255); stroke:rgb(0, 0, 0); stroke-width:1"  x="515"  y="262" />
<text x="525" y="274" font-size= "12" font-weight = "normal" style="fill:rgb(0, 0, 0)" font-family="Arial">_oh</text>
<text x="655" y="274" font-size= "12" font-weight = "normal" style="fill:rgb(0, 0, 0)" font-family="Arial">Output history</text>
<line x1="644" y1="262" x2="644" y2="279" style="stroke:rgb(0, 0, 0); stroke-width:1"/>
<rect  height="17" width="495"  style=" fill:rgb(255, 255, 255); stroke:rgb(0, 0, 0); stroke-width:1"  x="515"  y="279" />
<text x="525" y="291" font-size= "12" font-weight = "normal" style="fill:rgb(0, 0, 0)" font-family="Arial">%hist</text>
<text x="655" y="291" font-size= "12" font-weight = "normal" style="fill:rgb(0, 0, 0)" font-family="Arial">Command history of current session.</text>
<line x1="644" y1="279" x2="644" y2="296" style="stroke:rgb(0, 0, 0); stroke-width:1"/>
<rect  height="17" width="495"  style=" fill:rgb(255, 255, 255); stroke:rgb(0, 0, 0); stroke-width:1"  x="515"  y="296" />
<text x="525" y="308" font-size= "12" font-weight = "normal" style="fill:rgb(0, 0, 0)" font-family="Arial">%hist -g foo</text>
<text x="655" y="308" font-size= "12" font-weight = "normal" style="fill:rgb(0, 0, 0)" font-family="Arial">Search command history of (almost) all sessions for 'foo'.</text>
<line x1="644" y1="296" x2="644" y2="313" style="stroke:rgb(0, 0, 0); stroke-width:1"/>
<rect  height="17" width="495"  style=" fill:rgb(255, 255, 255); stroke:rgb(0, 0, 0); stroke-width:1"  x="515"  y="313" />
<text x="525" y="325" font-size= "12" font-weight = "normal" style="fill:rgb(0, 0, 0)" font-family="Arial">%hist -g</text>
<text x="655" y="325" font-size= "12" font-weight = "normal" style="fill:rgb(0, 0, 0)" font-family="Arial">Command history of (almost) all sessions.</text>
<line x1="644" y1="313" x2="644" y2="330" style="stroke:rgb(0, 0, 0); stroke-width:1"/>
<rect  height="17" width="495"  style=" fill:rgb(255, 255, 255); stroke:rgb(0, 0, 0); stroke-width:1"  x="515"  y="330" />
<text x="525" y="342" font-size= "12" font-weight = "normal" style="fill:rgb(0, 0, 0)" font-family="Arial">%hist 1/2-8</text>
<text x="655" y="342" font-size= "12" font-weight = "normal" style="fill:rgb(0, 0, 0)" font-family="Arial">Command history containing lines 2-8 of session 1.</text>
<line x1="644" y1="330" x2="644" y2="347" style="stroke:rgb(0, 0, 0); stroke-width:1"/>
<rect  height="17" width="495"  style=" fill:rgb(255, 255, 255); stroke:rgb(0, 0, 0); stroke-width:1"  x="515"  y="347" />
<text x="525" y="359" font-size= "12" font-weight = "normal" style="fill:rgb(0, 0, 0)" font-family="Arial">%hist 1/ ~2/</text>
<text x="655" y="359" font-size= "12" font-weight = "normal" style="fill:rgb(0, 0, 0)" font-family="Arial">Command history of session 1 and 2 sessions before current.</text>
<line x1="644" y1="347" x2="644" y2="364" style="stroke:rgb(0, 0, 0); stroke-width:1"/>
<rect  height="31" width="495"  style=" fill:rgb(255, 255, 255); stroke:rgb(0, 0, 0); stroke-width:1"  x="515"  y="364" />
<text x="525" y="376" font-size= "12" font-weight = "normal" style="fill:rgb(0, 0, 0)" font-family="Arial">%hist ~8/1-~6/5<tspan x="525" y="390"> </tspan></text>
<text x="655" y="376" font-size= "12" font-weight = "normal" style="fill:rgb(0, 0, 0)" font-family="Arial">Command history from line 1 of 8 sessions ago to<tspan x="655" y="390">line 5 of 6 sessions ago.</tspan></text>
<line x1="644" y1="364" x2="644" y2="395" style="stroke:rgb(0, 0, 0); stroke-width:1"/>
<rect  height="17" width="495"  style=" fill:rgb(255, 255, 255); stroke:rgb(0, 0, 0); stroke-width:1"  x="515"  y="395" />
<text x="525" y="407" font-size= "12" font-weight = "normal" style="fill:rgb(0, 0, 0)" font-family="Arial">%edit 0/</text>
<text x="655" y="407" font-size= "12" font-weight = "normal" style="fill:rgb(0, 0, 0)" font-family="Arial">Open editor to execute code with history of current session.</text>
<line x1="644" y1="395" x2="644" y2="412" style="stroke:rgb(0, 0, 0); stroke-width:1"/>
<rect  height="8" width="495"  style=" fill:rgb(255, 255, 255); stroke:rgb(0, 0, 0); stroke-width:1"  x="515"  y="412" />
<rect  height="25" width="495"  style=" fill:rgb(213, 224, 197); stroke:rgb(0, 0, 0); stroke-width:1"  x="515"  y="420" />
<text x="521" y="437" font-size= "14" font-weight = "bold" style="fill:rgb(0, 0, 0)" font-family="Arial">Autocall:</text>
<rect  height="8" width="495"  style=" fill:rgb(255, 255, 255); stroke:rgb(0, 0, 0); stroke-width:1"  x="515"  y="445" />
<rect  height="17" width="495"  style=" fill:rgb(255, 255, 255); stroke:rgb(0, 0, 0); stroke-width:1"  x="515"  y="453" />
<text x="525" y="465" font-size= "12" font-weight = "normal" style="fill:rgb(0, 0, 0)" font-family="Arial">f 1,2</text>
<text x="655" y="465" font-size= "12" font-weight = "normal" style="fill:rgb(0, 0, 0)" font-family="Arial">f(1,2)  # Off by default, enable with %autocall magic.</text>
<line x1="644" y1="453" x2="644" y2="470" style="stroke:rgb(0, 0, 0); stroke-width:1"/>
<rect  height="17" width="495"  style=" fill:rgb(255, 255, 255); stroke:rgb(0, 0, 0); stroke-width:1"  x="515"  y="470" />
<text x="525" y="482" font-size= "12" font-weight = "normal" style="fill:rgb(0, 0, 0)" font-family="Arial">/f 1,2</text>
<text x="655" y="482" font-size= "12" font-weight = "normal" style="fill:rgb(0, 0, 0)" font-family="Arial">f(1,2) (forced autoparen)</text>
<line x1="644" y1="470" x2="644" y2="487" style="stroke:rgb(0, 0, 0); stroke-width:1"/>
<rect  height="17" width="495"  style=" fill:rgb(255, 255, 255); stroke:rgb(0, 0, 0); stroke-width:1"  x="515"  y="487" />
<text x="525" y="499" font-size= "12" font-weight = "normal" style="fill:rgb(0, 0, 0)" font-family="Arial">,f 1 2</text>
<text x="655" y="499" font-size= "12" font-weight = "normal" style="fill:rgb(0, 0, 0)" font-family="Arial">f("1","2")</text>
<line x1="644" y1="487" x2="644" y2="504" style="stroke:rgb(0, 0, 0); stroke-width:1"/>
<rect  height="17" width="495"  style=" fill:rgb(255, 255, 255); stroke:rgb(0, 0, 0); stroke-width:1"  x="515"  y="504" />
<text x="525" y="516" font-size= "12" font-weight = "normal" style="fill:rgb(0, 0, 0)" font-family="Arial">;f 1 2</text>
<text x="655" y="516" font-size= "12" font-weight = "normal" style="fill:rgb(0, 0, 0)" font-family="Arial">f("1 2")</text>
<line x1="644" y1="504" x2="644" y2="521" style="stroke:rgb(0, 0, 0); stroke-width:1"/>
<rect  height="8" width="495"  style=" fill:rgb(255, 255, 255); stroke:rgb(0, 0, 0); stroke-width:1"  x="515"  y="521" />
<rect  height="31" width="495"  style=" fill:rgb(255, 255, 255); stroke:rgb(0, 0, 0); stroke-width:1"  x="515"  y="529" />
<text x="525" y="541" font-size= "12" font-weight = "normal" style="fill:rgb(0, 0, 0)" font-family="Arial">Remember: TAB completion works in many contexts, not just file names<tspan x="525" y="555">or python names.</tspan></text>
<rect  height="8" width="495"  style=" fill:rgb(255, 255, 255); stroke:rgb(0, 0, 0); stroke-width:1"  x="515"  y="560" />
</svg>