<svg viewBox="0 0 1571 571" height="571">
<rect  height="25" width="535"  style=" fill:rgb(213, 224, 197); stroke:rgb(0, 0, 0); stroke-width:1"  x="1"  y="1" />
<text x="7" y="18" font-size= "14" font-weight = "bold" style="fill:rgb(0, 0, 0)">The following magic functions are currently available:</text>
<rect  height="8" width="535"  style=" fill:rgb(255, 255, 255); stroke:rgb(0, 0, 0); stroke-width:1"  x="1"  y="26" />
<rect  height="17" width="535"  style=" fill:rgb(255, 255, 255); stroke:rgb(0, 0, 0); stroke-width:1"  x="1"  y="34" />
<text x="11" y="46" font-size= "12" font-weight = "normal" style="fill:rgb(0, 0, 0)">%alias</text>
<text x="151" y="46" font-size= "12" font-weight = "normal" style="fill:rgb(0, 0, 0)">Define an alias for a system command.</text>
<line x1="140" y1="34" x2="140" y2="51" style="stroke:rgb(0, 0, 0); stroke-width:1"/>
<rect  height="17" width="535"  style=" fill:rgb(255, 255, 255); stroke:rgb(0, 0, 0); stroke-width:1"  x="1"  y="51" />
<text x="11" y="63" font-size= "12" font-weight = "normal" style="fill:rgb(0, 0, 0)">%alias_magic</text>
<text x="151" y="63" font-size= "12" font-weight = "normal" style="fill:rgb(0, 0, 0)">%alias_magic [-l] [-c] name target</text>
<line x1="140" y1="51" x2="140" y2="68" style="stroke:rgb(0, 0, 0); stroke-width:1"/>
<rect  height="17" width="535"  style=" fill:rgb(255, 255, 255); stroke:rgb(0, 0, 0); stroke-width:1"  x="1"  y="68" />
<text x="11" y="80" font-size= "12" font-weight = "normal" style="fill:rgb(0, 0, 0)">%autocall</text>
<text x="151" y="80" font-size= "12" font-weight = "normal" style="fill:rgb(0, 0, 0)">Make functions callable without having to type parentheses.</text>
<line x1="140" y1="68" x2="140" y2="85" style="stroke:rgb(0, 0, 0); stroke-width:1"/>
<rect  height="17" width="535"  style=" fill:rgb(255, 255, 255); stroke:rgb(0, 0, 0); stroke-width:1"  x="1"  y="85" />
<text x="11" y="97" font-size= "12" font-weight = "normal" style="fill:rgb(0, 0, 0)">%automagic</text>
<text x="151" y="97" font-size= "12" font-weight = "normal" style="fill:rgb(0, 0, 0)">Make magic functions callable without having to type the initial %.</text>
<line x1="140" y1="85" x2="140" y2="102" style="stroke:rgb(0, 0, 0); stroke-width:1"/>
<rect  height="17" width="535"  style=" fill:rgb(255, 255, 255); stroke:rgb(0, 0, 0); stroke-width:1"  x="1"  y="102" />
<text x="11" y="114" font-size= "12" font-weight = "normal" style="fill:rgb(0, 0, 0)">%bookmark</text>
<text x="151" y="114" font-size= "12" font-weight = "normal" style="fill:rgb(0, 0, 0)">Manage IPython's bookmark system.</text>
<line x1="140" y1="102" x2="140" y2="119" style="stroke:rgb(0, 0, 0); stroke-width:1"/>
<rect  height="17" width="535"  style=" fill:rgb(255, 255, 255); stroke:rgb(0, 0, 0); stroke-width:1"  x="1"  y="119" />
<text x="11" y="131" font-size= "12" font-weight = "normal" style="fill:rgb(0, 0, 0)">%cd</text>
<text x="151" y="131" font-size= "12" font-weight = "normal" style="fill:rgb(0, 0, 0)">Change the current working directory.</text>
<line x1="140" y1="119" x2="140" y2="136" style="stroke:rgb(0, 0, 0); stroke-width:1"/>
<rect  height="17" width="535"  style=" fill:rgb(255, 255, 255); stroke:rgb(0, 0, 0); stroke-width:1"  x="1"  y="136" />
<text x="11" y="148" font-size= "12" font-weight = "normal" style="fill:rgb(0, 0, 0)">%clear</text>
<text x="151" y="148" font-size= "12" font-weight = "normal" style="fill:rgb(0, 0, 0)">Clear the terminal.</text>
<line x1="140" y1="136" x2="140" y2="153" style="stroke:rgb(0, 0, 0); stroke-width:1"/>
<rect  height="17" width="535"  style=" fill:rgb(255, 255, 255); stroke:rgb(0, 0, 0); stroke-width:1"  x="1"  y="153" />
<text x="11" y="165" font-size= "12" font-weight = "normal" style="fill:rgb(0, 0, 0)">%colors</text>
<text x="151" y="165" font-size= "12" font-weight = "normal" style="fill:rgb(0, 0, 0)">Switch color scheme for prompts, info system and exception handlers.</text>
<line x1="140" y1="153" x2="140" y2="170" style="stroke:rgb(0, 0, 0); stroke-width:1"/>
<rect  height="17" width="535"  style=" fill:rgb(255, 255, 255); stroke:rgb(0, 0, 0); stroke-width:1"  x="1"  y="170" />
<text x="11" y="182" font-size= "12" font-weight = "normal" style="fill:rgb(0, 0, 0)">%config</text>
<text x="151" y="182" font-size= "12" font-weight = "normal" style="fill:rgb(0, 0, 0)">configure IPython</text>
<line x1="140" y1="170" x2="140" y2="187" style="stroke:rgb(0, 0, 0); stroke-width:1"/>
<rect  height="17" width="535"  style=" fill:rgb(255, 255, 255); stroke:rgb(0, 0, 0); stroke-width:1"  x="1"  y="187" />
<text x="11" y="199" font-size= "12" font-weight = "normal" style="fill:rgb(0, 0, 0)">%connect_info</text>
<text x="151" y="199" font-size= "12" font-weight = "normal" style="fill:rgb(0, 0, 0)">Print information for connecting other clients to this kernel</text>
<line x1="140" y1="187" x2="140" y2="204" style="stroke:rgb(0, 0, 0); stroke-width:1"/>
<rect  height="17" width="535"  style=" fill:rgb(255, 255, 255); stroke:rgb(0, 0, 0); stroke-width:1"  x="1"  y="204" />
<text x="11" y="216" font-size= "12" font-weight = "normal" style="fill:rgb(0, 0, 0)">%debug</text>
<text x="151" y="216" font-size= "12" font-weight = "normal" style="fill:rgb(0, 0, 0)">Activate the interactive debugger in post-mortem mode.</text>
<line x1="140" y1="204" x2="140" y2="221" style="stroke:rgb(0, 0, 0); stroke-width:1"/>
<rect  height="17" width="535"  style=" fill:rgb(255, 255, 255); stroke:rgb(0, 0, 0); stroke-width:1"  x="1"  y="221" />
<text x="11" y="233" font-size= "12" font-weight = "normal" style="fill:rgb(0, 0, 0)">%dhist</text>
<text x="151" y="233" font-size= "12" font-weight = "normal" style="fill:rgb(0, 0, 0)">Print your history of visited directories.</text>
<line x1="140" y1="221" x2="140" y2="238" style="stroke:rgb(0, 0, 0); stroke-width:1"/>
<rect  height="17" width="535"  style=" fill:rgb(255, 255, 255); stroke:rgb(0, 0, 0); stroke-width:1"  x="1"  y="238" />
<text x="11" y="250" font-size= "12" font-weight = "normal" style="fill:rgb(0, 0, 0)">%dirs</text>
<text x="151" y="250" font-size= "12" font-weight = "normal" style="fill:rgb(0, 0, 0)">Return the current directory stack.</text>
<line x1="140" y1="238" x2="140" y2="255" style="stroke:rgb(0, 0, 0); stroke-width:1"/>
<rect  height="17" width="535"  style=" fill:rgb(255, 255, 255); stroke:rgb(0, 0, 0); stroke-width:1"  x="1"  y="255" />
<text x="11" y="267" font-size= "12" font-weight = "normal" style="fill:rgb(0, 0, 0)">%doctest_mode</text>
<text x="151" y="267" font-size= "12" font-weight = "normal" style="fill:rgb(0, 0, 0)">Toggle doctest mode on and off.</text>
<line x1="140" y1="255" x2="140" y2="272" style="stroke:rgb(0, 0, 0); stroke-width:1"/>
<rect  height="17" width="535"  style=" fill:rgb(255, 255, 255); stroke:rgb(0, 0, 0); stroke-width:1"  x="1"  y="272" />
<text x="11" y="284" font-size= "12" font-weight = "normal" style="fill:rgb(0, 0, 0)">%ed</text>
<text x="151" y="284" font-size= "12" font-weight = "normal" style="fill:rgb(0, 0, 0)">Alias for `%edit`.</text>
<line x1="140" y1="272" x2="140" y2="289" style="stroke:rgb(0, 0, 0); stroke-width:1"/>
<rect  height="17" width="535"  style=" fill:rgb(255, 255, 255); stroke:rgb(0, 0, 0); stroke-width:1"  x="1"  y="289" />
<text x="11" y="301" font-size= "12" font-weight = "normal" style="fill:rgb(0, 0, 0)">%edit</text>
<text x="151" y="301" font-size= "12" font-weight = "normal" style="fill:rgb(0, 0, 0)">Bring up an editor and execute the resulting code.</text>
<line x1="140" y1="289" x2="140" y2="306" style="stroke:rgb(0, 0, 0); stroke-width:1"/>
<rect  height="17" width="535"  style=" fill:rgb(255, 255, 255); stroke:rgb(0, 0, 0); stroke-width:1"  x="1"  y="306" />
<text x="11" y="318" font-size= "12" font-weight = "normal" style="fill:rgb(0, 0, 0)">%env</text>
<text x="151" y="318" font-size= "12" font-weight = "normal" style="fill:rgb(0, 0, 0)">List environment variables.</text>
<line x1="140" y1="306" x2="140" y2="323" style="stroke:rgb(0, 0, 0); stroke-width:1"/>
<rect  height="17" width="535"  style=" fill:rgb(255, 255, 255); stroke:rgb(0, 0, 0); stroke-width:1"  x="1"  y="323" />
<text x="11" y="335" font-size= "12" font-weight = "normal" style="fill:rgb(0, 0, 0)">%gui</text>
<text x="151" y="335" font-size= "12" font-weight = "normal" style="fill:rgb(0, 0, 0)">Enable or disable IPython GUI event loop integration.</text>
<line x1="140" y1="323" x2="140" y2="340" style="stroke:rgb(0, 0, 0); stroke-width:1"/>
<rect  height="17" width="535"  style=" fill:rgb(255, 255, 255); stroke:rgb(0, 0, 0); stroke-width:1"  x="1"  y="340" />
<text x="11" y="352" font-size= "12" font-weight = "normal" style="fill:rgb(0, 0, 0)">%hist</text>
<text x="151" y="352" font-size= "12" font-weight = "normal" style="fill:rgb(0, 0, 0)">Print input history (_i&lt;n&gt; variables), with most recent last.</text>
<line x1="140" y1="340" x2="140" y2="357" style="stroke:rgb(0, 0, 0); stroke-width:1"/>
<rect  height="17" width="535"  style=" fill:rgb(255, 255, 255); stroke:rgb(0, 0, 0); stroke-width:1"  x="1"  y="357" />
<text x="11" y="369" font-size= "12" font-weight = "normal" style="fill:rgb(0, 0, 0)">%history</text>
<text x="151" y="369" font-size= "12" font-weight = "normal" style="fill:rgb(0, 0, 0)">Print input history (_i&lt;n&gt; variables), with most recent last.</text>
<line x1="140" y1="357" x2="140" y2="374" style="stroke:rgb(0, 0, 0); stroke-width:1"/>
<rect  height="17" width="535"  style=" fill:rgb(255, 255, 255); stroke:rgb(0, 0, 0); stroke-width:1"  x="1"  y="374" />
<text x="11" y="386" font-size= "12" font-weight = "normal" style="fill:rgb(0, 0, 0)">%install_default_config</text>
<text x="151" y="386" font-size= "12" font-weight = "normal" style="fill:rgb(0, 0, 0)">%install_default_config has been deprecated.</text>
<line x1="140" y1="374" x2="140" y2="391" style="stroke:rgb(0, 0, 0); stroke-width:1"/>
<rect  height="17" width="535"  style=" fill:rgb(255, 255, 255); stroke:rgb(0, 0, 0); stroke-width:1"  x="1"  y="391" />
<text x="11" y="403" font-size= "12" font-weight = "normal" style="fill:rgb(0, 0, 0)">%install_ext</text>
<text x="151" y="403" font-size= "12" font-weight = "normal" style="fill:rgb(0, 0, 0)">Download and install an extension from a URL, e.g.</text>
<line x1="140" y1="391" x2="140" y2="408" style="stroke:rgb(0, 0, 0); stroke-width:1"/>
<rect  height="17" width="535"  style=" fill:rgb(255, 255, 255); stroke:rgb(0, 0, 0); stroke-width:1"  x="1"  y="408" />
<text x="11" y="420" font-size= "12" font-weight = "normal" style="fill:rgb(0, 0, 0)">%install_profiles</text>
<text x="151" y="420" font-size= "12" font-weight = "normal" style="fill:rgb(0, 0, 0)">%install_profiles has been deprecated.</text>
<line x1="140" y1="408" x2="140" y2="425" style="stroke:rgb(0, 0, 0); stroke-width:1"/>
<rect  height="17" width="535"  style=" fill:rgb(255, 255, 255); stroke:rgb(0, 0, 0); stroke-width:1"  x="1"  y="425" />
<text x="11" y="437" font-size= "12" font-weight = "normal" style="fill:rgb(0, 0, 0)">%killbgscripts</text>
<text x="151" y="437" font-size= "12" font-weight = "normal" style="fill:rgb(0, 0, 0)">Kill all BG processes started by %%script and its family.</text>
<line x1="140" y1="425" x2="140" y2="442" style="stroke:rgb(0, 0, 0); stroke-width:1"/>
<rect  height="17" width="535"  style=" fill:rgb(255, 255, 255); stroke:rgb(0, 0, 0); stroke-width:1"  x="1"  y="442" />
<text x="11" y="454" font-size= "12" font-weight = "normal" style="fill:rgb(0, 0, 0)">%less</text>
<text x="151" y="454" font-size= "12" font-weight = "normal" style="fill:rgb(0, 0, 0)">Show a file through the pager.</text>
<line x1="140" y1="442" x2="140" y2="459" style="stroke:rgb(0, 0, 0); stroke-width:1"/>
<rect  height="17" width="535"  style=" fill:rgb(255, 255, 255); stroke:rgb(0, 0, 0); stroke-width:1"  x="1"  y="459" />
<text x="11" y="471" font-size= "12" font-weight = "normal" style="fill:rgb(0, 0, 0)">%load</text>
<text x="151" y="471" font-size= "12" font-weight = "normal" style="fill:rgb(0, 0, 0)">Load code into the current frontend.</text>
<line x1="140" y1="459" x2="140" y2="476" style="stroke:rgb(0, 0, 0); stroke-width:1"/>
<rect  height="17" width="535"  style=" fill:rgb(255, 255, 255); stroke:rgb(0, 0, 0); stroke-width:1"  x="1"  y="476" />
<text x="11" y="488" font-size= "12" font-weight = "normal" style="fill:rgb(0, 0, 0)">%load_ext</text>
<text x="151" y="488" font-size= "12" font-weight = "normal" style="fill:rgb(0, 0, 0)">Load an IPython extension by its module name.</text>
<line x1="140" y1="476" x2="140" y2="493" style="stroke:rgb(0, 0, 0); stroke-width:1"/>
<rect  height="17" width="535"  style=" fill:rgb(255, 255, 255); stroke:rgb(0, 0, 0); stroke-width:1"  x="1"  y="493" />
<text x="11" y="505" font-size= "12" font-weight = "normal" style="fill:rgb(0, 0, 0)">%loadpy</text>
<text x="151" y="505" font-size= "12" font-weight = "normal" style="fill:rgb(0, 0, 0)">Alias of `%load`</text>
<line x1="140" y1="493" x2="140" y2="510" style="stroke:rgb(0, 0, 0); stroke-width:1"/>
<rect  height="17" width="535"  style=" fill:rgb(255, 255, 255); stroke:rgb(0, 0, 0); stroke-width:1"  x="1"  y="510" />
<text x="11" y="522" font-size= "12" font-weight = "normal" style="fill:rgb(0, 0, 0)">%logoff</text>
<text x="151" y="522" font-size= "12" font-weight = "normal" style="fill:rgb(0, 0, 0)">Temporarily stop logging.</text>
<line x1="140" y1="510" x2="140" y2="527" style="stroke:rgb(0, 0, 0); stroke-width:1"/>
<rect  height="17" width="535"  style=" fill:rgb(255, 255, 255); stroke:rgb(0, 0, 0); stroke-width:1"  x="1"  y="527" />
<text x="11" y="539" font-size= "12" font-weight = "normal" style="fill:rgb(0, 0, 0)">%logon</text>
<text x="151" y="539" font-size= "12" font-weight = "normal" style="fill:rgb(0, 0, 0)">Restart logging.</text>
<line x1="140" y1="527" x2="140" y2="544" style="stroke:rgb(0, 0, 0); stroke-width:1"/>
<rect  height="17" width="535"  style=" fill:rgb(255, 255, 255); stroke:rgb(0, 0, 0); stroke-width:1"  x="1"  y="544" />
<text x="11" y="556" font-size= "12" font-weight = "normal" style="fill:rgb(0, 0, 0)">%logstart</text>
<text x="151" y="556" font-size= "12" font-weight = "normal" style="fill:rgb(0, 0, 0)">Start logging anywhere in a session.</text>
<line x1="140" y1="544" x2="140" y2="561" style="stroke:rgb(0, 0, 0); stroke-width:1"/>
<rect  height="8" width="535"  style=" fill:rgb(255, 255, 255); stroke:rgb(0, 0, 0); stroke-width:1"  x="1"  y="561" />
<rect  height="17" width="470"  style=" fill:rgb(255, 255, 255); stroke:rgb(0, 0, 0); stroke-width:1"  x="548"  y="1" />
<text x="558" y="13" font-size= "12" font-weight = "normal" style="fill:rgb(0, 0, 0)">%logstate</text>
<text x="653" y="13" font-size= "12" font-weight = "normal" style="fill:rgb(0, 0, 0)">Print the status of the logging system.</text>
<line x1="642" y1="1" x2="642" y2="18" style="stroke:rgb(0, 0, 0); stroke-width:1"/>
<rect  height="17" width="470"  style=" fill:rgb(255, 255, 255); stroke:rgb(0, 0, 0); stroke-width:1"  x="548"  y="18" />
<text x="558" y="30" font-size= "12" font-weight = "normal" style="fill:rgb(0, 0, 0)">%logstop</text>
<text x="653" y="30" font-size= "12" font-weight = "normal" style="fill:rgb(0, 0, 0)">Fully stop logging and close log file.</text>
<line x1="642" y1="18" x2="642" y2="35" style="stroke:rgb(0, 0, 0); stroke-width:1"/>
<rect  height="17" width="470"  style=" fill:rgb(255, 255, 255); stroke:rgb(0, 0, 0); stroke-width:1"  x="548"  y="35" />
<text x="558" y="47" font-size= "12" font-weight = "normal" style="fill:rgb(0, 0, 0)">%lsmagic</text>
<text x="653" y="47" font-size= "12" font-weight = "normal" style="fill:rgb(0, 0, 0)">List currently available magic functions.</text>
<line x1="642" y1="35" x2="642" y2="52" style="stroke:rgb(0, 0, 0); stroke-width:1"/>
<rect  height="17" width="470"  style=" fill:rgb(255, 255, 255); stroke:rgb(0, 0, 0); stroke-width:1"  x="548"  y="52" />
<text x="558" y="64" font-size= "12" font-weight = "normal" style="fill:rgb(0, 0, 0)">%macro</text>
<text x="653" y="64" font-size= "12" font-weight = "normal" style="fill:rgb(0, 0, 0)">Define a macro for future re-execution. It accepts ranges of history,</text>
<line x1="642" y1="52" x2="642" y2="69" style="stroke:rgb(0, 0, 0); stroke-width:1"/>
<rect  height="17" width="470"  style=" fill:rgb(255, 255, 255); stroke:rgb(0, 0, 0); stroke-width:1"  x="548"  y="69" />
<text x="558" y="81" font-size= "12" font-weight = "normal" style="fill:rgb(0, 0, 0)">%magic</text>
<text x="653" y="81" font-size= "12" font-weight = "normal" style="fill:rgb(0, 0, 0)">Print information about the magic function system.</text>
<line x1="642" y1="69" x2="642" y2="86" style="stroke:rgb(0, 0, 0); stroke-width:1"/>
<rect  height="17" width="470"  style=" fill:rgb(255, 255, 255); stroke:rgb(0, 0, 0); stroke-width:1"  x="548"  y="86" />
<text x="558" y="98" font-size= "12" font-weight = "normal" style="fill:rgb(0, 0, 0)">%man</text>
<text x="653" y="98" font-size= "12" font-weight = "normal" style="fill:rgb(0, 0, 0)">Find the man page for the given command and display in pager.</text>
<line x1="642" y1="86" x2="642" y2="103" style="stroke:rgb(0, 0, 0); stroke-width:1"/>
<rect  height="17" width="470"  style=" fill:rgb(255, 255, 255); stroke:rgb(0, 0, 0); stroke-width:1"  x="548"  y="103" />
<text x="558" y="115" font-size= "12" font-weight = "normal" style="fill:rgb(0, 0, 0)">%more</text>
<text x="653" y="115" font-size= "12" font-weight = "normal" style="fill:rgb(0, 0, 0)">Show a file through the pager.</text>
<line x1="642" y1="103" x2="642" y2="120" style="stroke:rgb(0, 0, 0); stroke-width:1"/>
<rect  height="17" width="470"  style=" fill:rgb(255, 255, 255); stroke:rgb(0, 0, 0); stroke-width:1"  x="548"  y="120" />
<text x="558" y="132" font-size= "12" font-weight = "normal" style="fill:rgb(0, 0, 0)">%notebook</text>
<text x="653" y="132" font-size= "12" font-weight = "normal" style="fill:rgb(0, 0, 0)">%notebook [-e] [-f FORMAT] filename</text>
<line x1="642" y1="120" x2="642" y2="137" style="stroke:rgb(0, 0, 0); stroke-width:1"/>
<rect  height="17" width="470"  style=" fill:rgb(255, 255, 255); stroke:rgb(0, 0, 0); stroke-width:1"  x="548"  y="137" />
<text x="558" y="149" font-size= "12" font-weight = "normal" style="fill:rgb(0, 0, 0)">%page</text>
<text x="653" y="149" font-size= "12" font-weight = "normal" style="fill:rgb(0, 0, 0)">Pretty print the object and display it through a pager.</text>
<line x1="642" y1="137" x2="642" y2="154" style="stroke:rgb(0, 0, 0); stroke-width:1"/>
<rect  height="17" width="470"  style=" fill:rgb(255, 255, 255); stroke:rgb(0, 0, 0); stroke-width:1"  x="548"  y="154" />
<text x="558" y="166" font-size= "12" font-weight = "normal" style="fill:rgb(0, 0, 0)">%pastebin</text>
<text x="653" y="166" font-size= "12" font-weight = "normal" style="fill:rgb(0, 0, 0)">Upload code to Github's Gist paste bin, returning the URL.</text>
<line x1="642" y1="154" x2="642" y2="171" style="stroke:rgb(0, 0, 0); stroke-width:1"/>
<rect  height="17" width="470"  style=" fill:rgb(255, 255, 255); stroke:rgb(0, 0, 0); stroke-width:1"  x="548"  y="171" />
<text x="558" y="183" font-size= "12" font-weight = "normal" style="fill:rgb(0, 0, 0)">%pdb</text>
<text x="653" y="183" font-size= "12" font-weight = "normal" style="fill:rgb(0, 0, 0)">Control the automatic calling of the pdb interactive debugger.</text>
<line x1="642" y1="171" x2="642" y2="188" style="stroke:rgb(0, 0, 0); stroke-width:1"/>
<rect  height="17" width="470"  style=" fill:rgb(255, 255, 255); stroke:rgb(0, 0, 0); stroke-width:1"  x="548"  y="188" />
<text x="558" y="200" font-size= "12" font-weight = "normal" style="fill:rgb(0, 0, 0)">%pdef</text>
<text x="653" y="200" font-size= "12" font-weight = "normal" style="fill:rgb(0, 0, 0)">Print the definition header for any callable object.</text>
<line x1="642" y1="188" x2="642" y2="205" style="stroke:rgb(0, 0, 0); stroke-width:1"/>
<rect  height="17" width="470"  style=" fill:rgb(255, 255, 255); stroke:rgb(0, 0, 0); stroke-width:1"  x="548"  y="205" />
<text x="558" y="217" font-size= "12" font-weight = "normal" style="fill:rgb(0, 0, 0)">%pdoc</text>
<text x="653" y="217" font-size= "12" font-weight = "normal" style="fill:rgb(0, 0, 0)">Print the docstring for an object.</text>
<line x1="642" y1="205" x2="642" y2="222" style="stroke:rgb(0, 0, 0); stroke-width:1"/>
<rect  height="17" width="470"  style=" fill:rgb(255, 255, 255); stroke:rgb(0, 0, 0); stroke-width:1"  x="548"  y="222" />
<text x="558" y="234" font-size= "12" font-weight = "normal" style="fill:rgb(0, 0, 0)">%pfile</text>
<text x="653" y="234" font-size= "12" font-weight = "normal" style="fill:rgb(0, 0, 0)">Print (or run through pager) the file where an object is defined.</text>
<line x1="642" y1="222" x2="642" y2="239" style="stroke:rgb(0, 0, 0); stroke-width:1"/>
<rect  height="17" width="470"  style=" fill:rgb(255, 255, 255); stroke:rgb(0, 0, 0); stroke-width:1"  x="548"  y="239" />
<text x="558" y="251" font-size= "12" font-weight = "normal" style="fill:rgb(0, 0, 0)">%pinfo</text>
<text x="653" y="251" font-size= "12" font-weight = "normal" style="fill:rgb(0, 0, 0)">Provide detailed information about an object.</text>
<line x1="642" y1="239" x2="642" y2="256" style="stroke:rgb(0, 0, 0); stroke-width:1"/>
<rect  height="17" width="470"  style=" fill:rgb(255, 255, 255); stroke:rgb(0, 0, 0); stroke-width:1"  x="548"  y="256" />
<text x="558" y="268" font-size= "12" font-weight = "normal" style="fill:rgb(0, 0, 0)">%pinfo2</text>
<text x="653" y="268" font-size= "12" font-weight = "normal" style="fill:rgb(0, 0, 0)">Provide extra detailed information about an object.</text>
<line x1="642" y1="256" x2="642" y2="273" style="stroke:rgb(0, 0, 0); stroke-width:1"/>
<rect  height="17" width="470"  style=" fill:rgb(255, 255, 255); stroke:rgb(0, 0, 0); stroke-width:1"  x="548"  y="273" />
<text x="558" y="285" font-size= "12" font-weight = "normal" style="fill:rgb(0, 0, 0)">%popd</text>
<text x="653" y="285" font-size= "12" font-weight = "normal" style="fill:rgb(0, 0, 0)">Change to directory popped off the top of the stack.</text>
<line x1="642" y1="273" x2="642" y2="290" style="stroke:rgb(0, 0, 0); stroke-width:1"/>
<rect  height="17" width="470"  style=" fill:rgb(255, 255, 255); stroke:rgb(0, 0, 0); stroke-width:1"  x="548"  y="290" />
<text x="558" y="302" font-size= "12" font-weight = "normal" style="fill:rgb(0, 0, 0)">%pprint</text>
<text x="653" y="302" font-size= "12" font-weight = "normal" style="fill:rgb(0, 0, 0)">Toggle pretty printing on/off.</text>
<line x1="642" y1="290" x2="642" y2="307" style="stroke:rgb(0, 0, 0); stroke-width:1"/>
<rect  height="17" width="470"  style=" fill:rgb(255, 255, 255); stroke:rgb(0, 0, 0); stroke-width:1"  x="548"  y="307" />
<text x="558" y="319" font-size= "12" font-weight = "normal" style="fill:rgb(0, 0, 0)">%precision</text>
<text x="653" y="319" font-size= "12" font-weight = "normal" style="fill:rgb(0, 0, 0)">Set floating point precision for pretty printing.</text>
<line x1="642" y1="307" x2="642" y2="324" style="stroke:rgb(0, 0, 0); stroke-width:1"/>
<rect  height="17" width="470"  style=" fill:rgb(255, 255, 255); stroke:rgb(0, 0, 0); stroke-width:1"  x="548"  y="324" />
<text x="558" y="336" font-size= "12" font-weight = "normal" style="fill:rgb(0, 0, 0)">%profile</text>
<text x="653" y="336" font-size= "12" font-weight = "normal" style="fill:rgb(0, 0, 0)">Print your currently active IPython profile.</text>
<line x1="642" y1="324" x2="642" y2="341" style="stroke:rgb(0, 0, 0); stroke-width:1"/>
<rect  height="17" width="470"  style=" fill:rgb(255, 255, 255); stroke:rgb(0, 0, 0); stroke-width:1"  x="548"  y="341" />
<text x="558" y="353" font-size= "12" font-weight = "normal" style="fill:rgb(0, 0, 0)">%prun</text>
<text x="653" y="353" font-size= "12" font-weight = "normal" style="fill:rgb(0, 0, 0)">Run a statement through the python code profiler.</text>
<line x1="642" y1="341" x2="642" y2="358" style="stroke:rgb(0, 0, 0); stroke-width:1"/>
<rect  height="17" width="470"  style=" fill:rgb(255, 255, 255); stroke:rgb(0, 0, 0); stroke-width:1"  x="548"  y="358" />
<text x="558" y="370" font-size= "12" font-weight = "normal" style="fill:rgb(0, 0, 0)">%psearch</text>
<text x="653" y="370" font-size= "12" font-weight = "normal" style="fill:rgb(0, 0, 0)">Search for object in namespaces by wildcard.</text>
<line x1="642" y1="358" x2="642" y2="375" style="stroke:rgb(0, 0, 0); stroke-width:1"/>
<rect  height="17" width="470"  style=" fill:rgb(255, 255, 255); stroke:rgb(0, 0, 0); stroke-width:1"  x="548"  y="375" />
<text x="558" y="387" font-size= "12" font-weight = "normal" style="fill:rgb(0, 0, 0)">%psource</text>
<text x="653" y="387" font-size= "12" font-weight = "normal" style="fill:rgb(0, 0, 0)">Print (or run through pager) the source code for an object.</text>
<line x1="642" y1="375" x2="642" y2="392" style="stroke:rgb(0, 0, 0); stroke-width:1"/>
<rect  height="17" width="470"  style=" fill:rgb(255, 255, 255); stroke:rgb(0, 0, 0); stroke-width:1"  x="548"  y="392" />
<text x="558" y="404" font-size= "12" font-weight = "normal" style="fill:rgb(0, 0, 0)">%pushd</text>
<text x="653" y="404" font-size= "12" font-weight = "normal" style="fill:rgb(0, 0, 0)">Place the current dir on stack and change directory.</text>
<line x1="642" y1="392" x2="642" y2="409" style="stroke:rgb(0, 0, 0); stroke-width:1"/>
<rect  height="17" width="470"  style=" fill:rgb(255, 255, 255); stroke:rgb(0, 0, 0); stroke-width:1"  x="548"  y="409" />
<text x="558" y="421" font-size= "12" font-weight = "normal" style="fill:rgb(0, 0, 0)">%pwd</text>
<text x="653" y="421" font-size= "12" font-weight = "normal" style="fill:rgb(0, 0, 0)">Return the current working directory path.</text>
<line x1="642" y1="409" x2="642" y2="426" style="stroke:rgb(0, 0, 0); stroke-width:1"/>
<rect  height="17" width="470"  style=" fill:rgb(255, 255, 255); stroke:rgb(0, 0, 0); stroke-width:1"  x="548"  y="426" />
<text x="558" y="438" font-size= "12" font-weight = "normal" style="fill:rgb(0, 0, 0)">%pycat</text>
<text x="653" y="438" font-size= "12" font-weight = "normal" style="fill:rgb(0, 0, 0)">Show a syntax-highlighted file through a pager.</text>
<line x1="642" y1="426" x2="642" y2="443" style="stroke:rgb(0, 0, 0); stroke-width:1"/>
<rect  height="17" width="470"  style=" fill:rgb(255, 255, 255); stroke:rgb(0, 0, 0); stroke-width:1"  x="548"  y="443" />
<text x="558" y="455" font-size= "12" font-weight = "normal" style="fill:rgb(0, 0, 0)">%pylab</text>
<text x="653" y="455" font-size= "12" font-weight = "normal" style="fill:rgb(0, 0, 0)">Load numpy and matplotlib to work interactively.</text>
<line x1="642" y1="443" x2="642" y2="460" style="stroke:rgb(0, 0, 0); stroke-width:1"/>
<rect  height="17" width="470"  style=" fill:rgb(255, 255, 255); stroke:rgb(0, 0, 0); stroke-width:1"  x="548"  y="460" />
<text x="558" y="472" font-size= "12" font-weight = "normal" style="fill:rgb(0, 0, 0)">%qtconsole</text>
<text x="653" y="472" font-size= "12" font-weight = "normal" style="fill:rgb(0, 0, 0)">Open a qtconsole connected to this kernel.</text>
<line x1="642" y1="460" x2="642" y2="477" style="stroke:rgb(0, 0, 0); stroke-width:1"/>
<rect  height="17" width="470"  style=" fill:rgb(255, 255, 255); stroke:rgb(0, 0, 0); stroke-width:1"  x="548"  y="477" />
<text x="558" y="489" font-size= "12" font-weight = "normal" style="fill:rgb(0, 0, 0)">%quickref</text>
<text x="653" y="489" font-size= "12" font-weight = "normal" style="fill:rgb(0, 0, 0)">Show a quick reference sheet</text>
<line x1="642" y1="477" x2="642" y2="494" style="stroke:rgb(0, 0, 0); stroke-width:1"/>
<rect  height="17" width="470"  style=" fill:rgb(255, 255, 255); stroke:rgb(0, 0, 0); stroke-width:1"  x="548"  y="494" />
<text x="558" y="506" font-size= "12" font-weight = "normal" style="fill:rgb(0, 0, 0)">%quickref_file</text>
<text x="653" y="506" font-size= "12" font-weight = "normal" style="fill:rgb(0, 0, 0)">Save a quick reference sheet on disk</text>
<line x1="642" y1="494" x2="642" y2="511" style="stroke:rgb(0, 0, 0); stroke-width:1"/>
<rect  height="17" width="470"  style=" fill:rgb(255, 255, 255); stroke:rgb(0, 0, 0); stroke-width:1"  x="548"  y="511" />
<text x="558" y="523" font-size= "12" font-weight = "normal" style="fill:rgb(0, 0, 0)">%recall</text>
<text x="653" y="523" font-size= "12" font-weight = "normal" style="fill:rgb(0, 0, 0)">Repeat a command, or get command to input line for editing.</text>
<line x1="642" y1="511" x2="642" y2="528" style="stroke:rgb(0, 0, 0); stroke-width:1"/>
<rect  height="17" width="470"  style=" fill:rgb(255, 255, 255); stroke:rgb(0, 0, 0); stroke-width:1"  x="548"  y="528" />
<text x="558" y="540" font-size= "12" font-weight = "normal" style="fill:rgb(0, 0, 0)">%rehashx</text>
<text x="653" y="540" font-size= "12" font-weight = "normal" style="fill:rgb(0, 0, 0)">Update the alias table with all executable files in $PATH.</text>
<line x1="642" y1="528" x2="642" y2="545" style="stroke:rgb(0, 0, 0); stroke-width:1"/>
<rect  height="17" width="470"  style=" fill:rgb(255, 255, 255); stroke:rgb(0, 0, 0); stroke-width:1"  x="548"  y="545" />
<text x="558" y="557" font-size= "12" font-weight = "normal" style="fill:rgb(0, 0, 0)">%reload_ext</text>
<text x="653" y="557" font-size= "12" font-weight = "normal" style="fill:rgb(0, 0, 0)">Reload an IPython extension by its module name.</text>
<line x1="642" y1="545" x2="642" y2="562" style="stroke:rgb(0, 0, 0); stroke-width:1"/>
<rect  height="8" width="470"  style=" fill:rgb(255, 255, 255); stroke:rgb(0, 0, 0); stroke-width:1"  x="548"  y="562" />
<rect  height="17" width="540"  style=" fill:rgb(255, 255, 255); stroke:rgb(0, 0, 0); stroke-width:1"  x="1030"  y="1" />
<text x="1040" y="13" font-size= "12" font-weight = "normal" style="fill:rgb(0, 0, 0)">%rep</text>
<text x="1150" y="13" font-size= "12" font-weight = "normal" style="fill:rgb(0, 0, 0)">Repeat a command, or get command to input line for editing.</text>
<line x1="1139" y1="1" x2="1139" y2="18" style="stroke:rgb(0, 0, 0); stroke-width:1"/>
<rect  height="17" width="540"  style=" fill:rgb(255, 255, 255); stroke:rgb(0, 0, 0); stroke-width:1"  x="1030"  y="18" />
<text x="1040" y="30" font-size= "12" font-weight = "normal" style="fill:rgb(0, 0, 0)">%rerun</text>
<text x="1150" y="30" font-size= "12" font-weight = "normal" style="fill:rgb(0, 0, 0)">Re-run previous input</text>
<line x1="1139" y1="18" x2="1139" y2="35" style="stroke:rgb(0, 0, 0); stroke-width:1"/>
<rect  height="17" width="540"  style=" fill:rgb(255, 255, 255); stroke:rgb(0, 0, 0); stroke-width:1"  x="1030"  y="35" />
<text x="1040" y="47" font-size= "12" font-weight = "normal" style="fill:rgb(0, 0, 0)">%reset</text>
<text x="1150" y="47" font-size= "12" font-weight = "normal" style="fill:rgb(0, 0, 0)">Resets the namespace by removing all names defined by the user, if</text>
<line x1="1139" y1="35" x2="1139" y2="52" style="stroke:rgb(0, 0, 0); stroke-width:1"/>
<rect  height="17" width="540"  style=" fill:rgb(255, 255, 255); stroke:rgb(0, 0, 0); stroke-width:1"  x="1030"  y="52" />
<text x="1040" y="64" font-size= "12" font-weight = "normal" style="fill:rgb(0, 0, 0)">%reset_selective</text>
<text x="1150" y="64" font-size= "12" font-weight = "normal" style="fill:rgb(0, 0, 0)">Resets the namespace by removing names defined by the user.</text>
<line x1="1139" y1="52" x2="1139" y2="69" style="stroke:rgb(0, 0, 0); stroke-width:1"/>
<rect  height="17" width="540"  style=" fill:rgb(255, 255, 255); stroke:rgb(0, 0, 0); stroke-width:1"  x="1030"  y="69" />
<text x="1040" y="81" font-size= "12" font-weight = "normal" style="fill:rgb(0, 0, 0)">%run</text>
<text x="1150" y="81" font-size= "12" font-weight = "normal" style="fill:rgb(0, 0, 0)">Run the named file inside IPython as a program.</text>
<line x1="1139" y1="69" x2="1139" y2="86" style="stroke:rgb(0, 0, 0); stroke-width:1"/>
<rect  height="17" width="540"  style=" fill:rgb(255, 255, 255); stroke:rgb(0, 0, 0); stroke-width:1"  x="1030"  y="86" />
<text x="1040" y="98" font-size= "12" font-weight = "normal" style="fill:rgb(0, 0, 0)">%save</text>
<text x="1150" y="98" font-size= "12" font-weight = "normal" style="fill:rgb(0, 0, 0)">Save a set of lines or a macro to a given filename.</text>
<line x1="1139" y1="86" x2="1139" y2="103" style="stroke:rgb(0, 0, 0); stroke-width:1"/>
<rect  height="17" width="540"  style=" fill:rgb(255, 255, 255); stroke:rgb(0, 0, 0); stroke-width:1"  x="1030"  y="103" />
<text x="1040" y="115" font-size= "12" font-weight = "normal" style="fill:rgb(0, 0, 0)">%sc</text>
<text x="1150" y="115" font-size= "12" font-weight = "normal" style="fill:rgb(0, 0, 0)">Shell capture - run shell command and capture output (DEPRECATED use !).</text>
<line x1="1139" y1="103" x2="1139" y2="120" style="stroke:rgb(0, 0, 0); stroke-width:1"/>
<rect  height="17" width="540"  style=" fill:rgb(255, 255, 255); stroke:rgb(0, 0, 0); stroke-width:1"  x="1030"  y="120" />
<text x="1040" y="132" font-size= "12" font-weight = "normal" style="fill:rgb(0, 0, 0)">%store</text>
<text x="1150" y="132" font-size= "12" font-weight = "normal" style="fill:rgb(0, 0, 0)">Lightweight persistence for python variables.</text>
<line x1="1139" y1="120" x2="1139" y2="137" style="stroke:rgb(0, 0, 0); stroke-width:1"/>
<rect  height="17" width="540"  style=" fill:rgb(255, 255, 255); stroke:rgb(0, 0, 0); stroke-width:1"  x="1030"  y="137" />
<text x="1040" y="149" font-size= "12" font-weight = "normal" style="fill:rgb(0, 0, 0)">%sx</text>
<text x="1150" y="149" font-size= "12" font-weight = "normal" style="fill:rgb(0, 0, 0)">Shell execute - run shell command and capture output (!! is short-hand).</text>
<line x1="1139" y1="137" x2="1139" y2="154" style="stroke:rgb(0, 0, 0); stroke-width:1"/>
<rect  height="17" width="540"  style=" fill:rgb(255, 255, 255); stroke:rgb(0, 0, 0); stroke-width:1"  x="1030"  y="154" />
<text x="1040" y="166" font-size= "12" font-weight = "normal" style="fill:rgb(0, 0, 0)">%system</text>
<text x="1150" y="166" font-size= "12" font-weight = "normal" style="fill:rgb(0, 0, 0)">Shell execute - run shell command and capture output (!! is short-hand).</text>
<line x1="1139" y1="154" x2="1139" y2="171" style="stroke:rgb(0, 0, 0); stroke-width:1"/>
<rect  height="17" width="540"  style=" fill:rgb(255, 255, 255); stroke:rgb(0, 0, 0); stroke-width:1"  x="1030"  y="171" />
<text x="1040" y="183" font-size= "12" font-weight = "normal" style="fill:rgb(0, 0, 0)">%tb</text>
<text x="1150" y="183" font-size= "12" font-weight = "normal" style="fill:rgb(0, 0, 0)">Print the last traceback with the currently active exception mode.</text>
<line x1="1139" y1="171" x2="1139" y2="188" style="stroke:rgb(0, 0, 0); stroke-width:1"/>
<rect  height="17" width="540"  style=" fill:rgb(255, 255, 255); stroke:rgb(0, 0, 0); stroke-width:1"  x="1030"  y="188" />
<text x="1040" y="200" font-size= "12" font-weight = "normal" style="fill:rgb(0, 0, 0)">%time</text>
<text x="1150" y="200" font-size= "12" font-weight = "normal" style="fill:rgb(0, 0, 0)">Time execution of a Python statement or expression.</text>
<line x1="1139" y1="188" x2="1139" y2="205" style="stroke:rgb(0, 0, 0); stroke-width:1"/>
<rect  height="17" width="540"  style=" fill:rgb(255, 255, 255); stroke:rgb(0, 0, 0); stroke-width:1"  x="1030"  y="205" />
<text x="1040" y="217" font-size= "12" font-weight = "normal" style="fill:rgb(0, 0, 0)">%timeit</text>
<text x="1150" y="217" font-size= "12" font-weight = "normal" style="fill:rgb(0, 0, 0)">Time execution of a Python statement or expression</text>
<line x1="1139" y1="205" x2="1139" y2="222" style="stroke:rgb(0, 0, 0); stroke-width:1"/>
<rect  height="17" width="540"  style=" fill:rgb(255, 255, 255); stroke:rgb(0, 0, 0); stroke-width:1"  x="1030"  y="222" />
<text x="1040" y="234" font-size= "12" font-weight = "normal" style="fill:rgb(0, 0, 0)">%unalias</text>
<text x="1150" y="234" font-size= "12" font-weight = "normal" style="fill:rgb(0, 0, 0)">Remove an alias</text>
<line x1="1139" y1="222" x2="1139" y2="239" style="stroke:rgb(0, 0, 0); stroke-width:1"/>
<rect  height="17" width="540"  style=" fill:rgb(255, 255, 255); stroke:rgb(0, 0, 0); stroke-width:1"  x="1030"  y="239" />
<text x="1040" y="251" font-size= "12" font-weight = "normal" style="fill:rgb(0, 0, 0)">%unload_ext</text>
<text x="1150" y="251" font-size= "12" font-weight = "normal" style="fill:rgb(0, 0, 0)">Unload an IPython extension by its module name.</text>
<line x1="1139" y1="239" x2="1139" y2="256" style="stroke:rgb(0, 0, 0); stroke-width:1"/>
<rect  height="17" width="540"  style=" fill:rgb(255, 255, 255); stroke:rgb(0, 0, 0); stroke-width:1"  x="1030"  y="256" />
<text x="1040" y="268" font-size= "12" font-weight = "normal" style="fill:rgb(0, 0, 0)">%who</text>
<text x="1150" y="268" font-size= "12" font-weight = "normal" style="fill:rgb(0, 0, 0)">Print all interactive variables, with some minimal formatting.</text>
<line x1="1139" y1="256" x2="1139" y2="273" style="stroke:rgb(0, 0, 0); stroke-width:1"/>
<rect  height="17" width="540"  style=" fill:rgb(255, 255, 255); stroke:rgb(0, 0, 0); stroke-width:1"  x="1030"  y="273" />
<text x="1040" y="285" font-size= "12" font-weight = "normal" style="fill:rgb(0, 0, 0)">%who_ls</text>
<text x="1150" y="285" font-size= "12" font-weight = "normal" style="fill:rgb(0, 0, 0)">Return a sorted list of all interactive variables.</text>
<line x1="1139" y1="273" x2="1139" y2="290" style="stroke:rgb(0, 0, 0); stroke-width:1"/>
<rect  height="17" width="540"  style=" fill:rgb(255, 255, 255); stroke:rgb(0, 0, 0); stroke-width:1"  x="1030"  y="290" />
<text x="1040" y="302" font-size= "12" font-weight = "normal" style="fill:rgb(0, 0, 0)">%whos</text>
<text x="1150" y="302" font-size= "12" font-weight = "normal" style="fill:rgb(0, 0, 0)">Like %who, but gives some extra information about each variable.</text>
<line x1="1139" y1="290" x2="1139" y2="307" style="stroke:rgb(0, 0, 0); stroke-width:1"/>
<rect  height="17" width="540"  style=" fill:rgb(255, 255, 255); stroke:rgb(0, 0, 0); stroke-width:1"  x="1030"  y="307" />
<text x="1040" y="319" font-size= "12" font-weight = "normal" style="fill:rgb(0, 0, 0)">%xdel</text>
<text x="1150" y="319" font-size= "12" font-weight = "normal" style="fill:rgb(0, 0, 0)">Delete a variable, trying to clear it from anywhere that</text>
<line x1="1139" y1="307" x2="1139" y2="324" style="stroke:rgb(0, 0, 0); stroke-width:1"/>
<rect  height="17" width="540"  style=" fill:rgb(255, 255, 255); stroke:rgb(0, 0, 0); stroke-width:1"  x="1030"  y="324" />
<text x="1040" y="336" font-size= "12" font-weight = "normal" style="fill:rgb(0, 0, 0)">%xmode</text>
<text x="1150" y="336" font-size= "12" font-weight = "normal" style="fill:rgb(0, 0, 0)">Switch modes for the exception handlers.</text>
<line x1="1139" y1="324" x2="1139" y2="341" style="stroke:rgb(0, 0, 0); stroke-width:1"/>
<rect  height="17" width="540"  style=" fill:rgb(255, 255, 255); stroke:rgb(0, 0, 0); stroke-width:1"  x="1030"  y="341" />
<text x="1040" y="353" font-size= "12" font-weight = "normal" style="fill:rgb(0, 0, 0)">%%!</text>
<text x="1150" y="353" font-size= "12" font-weight = "normal" style="fill:rgb(0, 0, 0)">Shell execute - run shell command and capture output (!! is short-hand).</text>
<line x1="1139" y1="341" x2="1139" y2="358" style="stroke:rgb(0, 0, 0); stroke-width:1"/>
<rect  height="17" width="540"  style=" fill:rgb(255, 255, 255); stroke:rgb(0, 0, 0); stroke-width:1"  x="1030"  y="358" />
<text x="1040" y="370" font-size= "12" font-weight = "normal" style="fill:rgb(0, 0, 0)">%%bash</text>
<text x="1150" y="370" font-size= "12" font-weight = "normal" style="fill:rgb(0, 0, 0)">%%bash script magic</text>
<line x1="1139" y1="358" x2="1139" y2="375" style="stroke:rgb(0, 0, 0); stroke-width:1"/>
<rect  height="17" width="540"  style=" fill:rgb(255, 255, 255); stroke:rgb(0, 0, 0); stroke-width:1"  x="1030"  y="375" />
<text x="1040" y="387" font-size= "12" font-weight = "normal" style="fill:rgb(0, 0, 0)">%%capture</text>
<text x="1150" y="387" font-size= "12" font-weight = "normal" style="fill:rgb(0, 0, 0)">%capture [--no-stderr] [--no-stdout] [output]</text>
<line x1="1139" y1="375" x2="1139" y2="392" style="stroke:rgb(0, 0, 0); stroke-width:1"/>
<rect  height="17" width="540"  style=" fill:rgb(255, 255, 255); stroke:rgb(0, 0, 0); stroke-width:1"  x="1030"  y="392" />
<text x="1040" y="404" font-size= "12" font-weight = "normal" style="fill:rgb(0, 0, 0)">%%file</text>
<text x="1150" y="404" font-size= "12" font-weight = "normal" style="fill:rgb(0, 0, 0)">%file [-a] filename</text>
<line x1="1139" y1="392" x2="1139" y2="409" style="stroke:rgb(0, 0, 0); stroke-width:1"/>
<rect  height="17" width="540"  style=" fill:rgb(255, 255, 255); stroke:rgb(0, 0, 0); stroke-width:1"  x="1030"  y="409" />
<text x="1040" y="421" font-size= "12" font-weight = "normal" style="fill:rgb(0, 0, 0)">%%perl</text>
<text x="1150" y="421" font-size= "12" font-weight = "normal" style="fill:rgb(0, 0, 0)">%%perl script magic</text>
<line x1="1139" y1="409" x2="1139" y2="426" style="stroke:rgb(0, 0, 0); stroke-width:1"/>
<rect  height="17" width="540"  style=" fill:rgb(255, 255, 255); stroke:rgb(0, 0, 0); stroke-width:1"  x="1030"  y="426" />
<text x="1040" y="438" font-size= "12" font-weight = "normal" style="fill:rgb(0, 0, 0)">%%prun</text>
<text x="1150" y="438" font-size= "12" font-weight = "normal" style="fill:rgb(0, 0, 0)">Run a statement through the python code profiler.</text>
<line x1="1139" y1="426" x2="1139" y2="443" style="stroke:rgb(0, 0, 0); stroke-width:1"/>
<rect  height="17" width="540"  style=" fill:rgb(255, 255, 255); stroke:rgb(0, 0, 0); stroke-width:1"  x="1030"  y="443" />
<text x="1040" y="455" font-size= "12" font-weight = "normal" style="fill:rgb(0, 0, 0)">%%python3</text>
<text x="1150" y="455" font-size= "12" font-weight = "normal" style="fill:rgb(0, 0, 0)">%%python3 script magic</text>
<line x1="1139" y1="443" x2="1139" y2="460" style="stroke:rgb(0, 0, 0); stroke-width:1"/>
<rect  height="17" width="540"  style=" fill:rgb(255, 255, 255); stroke:rgb(0, 0, 0); stroke-width:1"  x="1030"  y="460" />
<text x="1040" y="472" font-size= "12" font-weight = "normal" style="fill:rgb(0, 0, 0)">%%ruby</text>
<text x="1150" y="472" font-size= "12" font-weight = "normal" style="fill:rgb(0, 0, 0)">%%ruby script magic</text>
<line x1="1139" y1="460" x2="1139" y2="477" style="stroke:rgb(0, 0, 0); stroke-width:1"/>
<rect  height="17" width="540"  style=" fill:rgb(255, 255, 255); stroke:rgb(0, 0, 0); stroke-width:1"  x="1030"  y="477" />
<text x="1040" y="489" font-size= "12" font-weight = "normal" style="fill:rgb(0, 0, 0)">%%script</text>
<text x="1150" y="489" font-size= "12" font-weight = "normal" style="fill:rgb(0, 0, 0)">%shebang [--proc PROC] [--bg] [--err ERR] [--out OUT]</text>
<line x1="1139" y1="477" x2="1139" y2="494" style="stroke:rgb(0, 0, 0); stroke-width:1"/>
<rect  height="17" width="540"  style=" fill:rgb(255, 255, 255); stroke:rgb(0, 0, 0); stroke-width:1"  x="1030"  y="494" />
<text x="1040" y="506" font-size= "12" font-weight = "normal" style="fill:rgb(0, 0, 0)">%%sh</text>
<text x="1150" y="506" font-size= "12" font-weight = "normal" style="fill:rgb(0, 0, 0)">%%sh script magic</text>
<line x1="1139" y1="494" x2="1139" y2="511" style="stroke:rgb(0, 0, 0); stroke-width:1"/>
<rect  height="17" width="540"  style=" fill:rgb(255, 255, 255); stroke:rgb(0, 0, 0); stroke-width:1"  x="1030"  y="511" />
<text x="1040" y="523" font-size= "12" font-weight = "normal" style="fill:rgb(0, 0, 0)">%%sx</text>
<text x="1150" y="523" font-size= "12" font-weight = "normal" style="fill:rgb(0, 0, 0)">Shell execute - run shell command and capture output (!! is short-hand).</text>
<line x1="1139" y1="511" x2="1139" y2="528" style="stroke:rgb(0, 0, 0); stroke-width:1"/>
<rect  height="17" width="540"  style=" fill:rgb(255, 255, 255); stroke:rgb(0, 0, 0); stroke-width:1"  x="1030"  y="528" />
<text x="1040" y="540" font-size= "12" font-weight = "normal" style="fill:rgb(0, 0, 0)">%%system</text>
<text x="1150" y="540" font-size= "12" font-weight = "normal" style="fill:rgb(0, 0, 0)">Shell execute - run shell command and capture output (!! is short-hand).</text>
<line x1="1139" y1="528" x2="1139" y2="545" style="stroke:rgb(0, 0, 0); stroke-width:1"/>
<rect  height="17" width="540"  style=" fill:rgb(255, 255, 255); stroke:rgb(0, 0, 0); stroke-width:1"  x="1030"  y="545" />
<text x="1040" y="557" font-size= "12" font-weight = "normal" style="fill:rgb(0, 0, 0)">%%timeit</text>
<text x="1150" y="557" font-size= "12" font-weight = "normal" style="fill:rgb(0, 0, 0)">Time execution of a Python statement or expression</text>
<line x1="1139" y1="545" x2="1139" y2="562" style="stroke:rgb(0, 0, 0); stroke-width:1"/>
<rect  height="8" width="540"  style=" fill:rgb(255, 255, 255); stroke:rgb(0, 0, 0); stroke-width:1"  x="1030"  y="562" />
</svg>